<mxfile host="app.diagrams.net" modified="2023-11-17T06:42:41.793Z" agent="Mozilla/5.0 (Macintosh; Intel Mac OS X 10_15_7) AppleWebKit/537.36 (KHTML, like Gecko) Chrome/119.0.0.0 Safari/537.36" etag="_zYVdW10ShmihgFYgJfL" version="22.1.2" type="github">
  <diagram name="第 1 页" id="6JDX8b_ZxWxS9qHbwjJB">
    <mxGraphModel dx="1434" dy="765" grid="1" gridSize="10" guides="1" tooltips="1" connect="1" arrows="1" fold="1" page="1" pageScale="1" pageWidth="827" pageHeight="1169" math="0" shadow="0">
      <root>
        <mxCell id="0" />
        <mxCell id="1" parent="0" />
        <mxCell id="ChNXvoBuONulAK5pbp8g-1" value="变长字段长度列表" style="rounded=0;whiteSpace=wrap;html=1;fillColor=#0050ef;fontColor=#ffffff;strokeColor=#001DBC;" parent="1" vertex="1">
          <mxGeometry x="110" y="200" width="100" height="45" as="geometry" />
        </mxCell>
        <mxCell id="ChNXvoBuONulAK5pbp8g-6" value="NULL值列表" style="rounded=0;whiteSpace=wrap;html=1;fillColor=#1ba1e2;fontColor=#ffffff;strokeColor=#006EAF;" parent="1" vertex="1">
          <mxGeometry x="210" y="200" width="92" height="45" as="geometry" />
        </mxCell>
        <mxCell id="ChNXvoBuONulAK5pbp8g-7" value="记录头信息" style="rounded=0;whiteSpace=wrap;html=1;fillColor=#f8cecc;strokeColor=#b85450;" parent="1" vertex="1">
          <mxGeometry x="302" y="200" width="88" height="45" as="geometry" />
        </mxCell>
        <mxCell id="ChNXvoBuONulAK5pbp8g-8" value="row_id" style="rounded=0;whiteSpace=wrap;html=1;fillColor=#f5f5f5;fontColor=#333333;strokeColor=#666666;" parent="1" vertex="1">
          <mxGeometry x="390" y="200" width="92" height="45" as="geometry" />
        </mxCell>
        <mxCell id="ChNXvoBuONulAK5pbp8g-9" value="trx_id" style="rounded=0;whiteSpace=wrap;html=1;fillColor=#f5f5f5;fontColor=#333333;strokeColor=#666666;" parent="1" vertex="1">
          <mxGeometry x="482" y="200" width="92" height="45" as="geometry" />
        </mxCell>
        <mxCell id="ChNXvoBuONulAK5pbp8g-10" value="roll_ptr" style="rounded=0;whiteSpace=wrap;html=1;fillColor=#f5f5f5;fontColor=#333333;strokeColor=#666666;" parent="1" vertex="1">
          <mxGeometry x="574" y="200" width="92" height="45" as="geometry" />
        </mxCell>
        <mxCell id="ChNXvoBuONulAK5pbp8g-11" value="列1值" style="rounded=0;whiteSpace=wrap;html=1;fillColor=#60a917;fontColor=#ffffff;strokeColor=#2D7600;" parent="1" vertex="1">
          <mxGeometry x="666" y="200" width="84" height="45" as="geometry" />
        </mxCell>
        <mxCell id="ChNXvoBuONulAK5pbp8g-12" value="列2值" style="rounded=0;whiteSpace=wrap;html=1;fillColor=#60a917;fontColor=#ffffff;strokeColor=#2D7600;" parent="1" vertex="1">
          <mxGeometry x="750" y="200" width="92" height="45" as="geometry" />
        </mxCell>
        <mxCell id="ChNXvoBuONulAK5pbp8g-13" value="... ..." style="rounded=0;whiteSpace=wrap;html=1;fillColor=#60a917;fontColor=#ffffff;strokeColor=#2D7600;" parent="1" vertex="1">
          <mxGeometry x="840" y="200" width="92" height="45" as="geometry" />
        </mxCell>
        <mxCell id="ChNXvoBuONulAK5pbp8g-14" value="列n值" style="rounded=0;whiteSpace=wrap;html=1;fillColor=#60a917;fontColor=#ffffff;strokeColor=#2D7600;" parent="1" vertex="1">
          <mxGeometry x="932" y="200" width="92" height="45" as="geometry" />
        </mxCell>
        <mxCell id="ChNXvoBuONulAK5pbp8g-15" value="" style="endArrow=classic;startArrow=classic;html=1;rounded=0;" parent="1" edge="1">
          <mxGeometry width="50" height="50" relative="1" as="geometry">
            <mxPoint x="110" y="290" as="sourcePoint" />
            <mxPoint x="390" y="290" as="targetPoint" />
          </mxGeometry>
        </mxCell>
        <mxCell id="ChNXvoBuONulAK5pbp8g-18" value="记录的额外信息" style="edgeLabel;html=1;align=center;verticalAlign=middle;resizable=0;points=[];" parent="ChNXvoBuONulAK5pbp8g-15" vertex="1" connectable="0">
          <mxGeometry x="-0.0643" y="2" relative="1" as="geometry">
            <mxPoint as="offset" />
          </mxGeometry>
        </mxCell>
        <mxCell id="ChNXvoBuONulAK5pbp8g-16" value="" style="endArrow=none;html=1;rounded=0;entryX=0;entryY=1;entryDx=0;entryDy=0;" parent="1" target="ChNXvoBuONulAK5pbp8g-1" edge="1">
          <mxGeometry width="50" height="50" relative="1" as="geometry">
            <mxPoint x="110" y="300" as="sourcePoint" />
            <mxPoint x="430" y="300" as="targetPoint" />
          </mxGeometry>
        </mxCell>
        <mxCell id="ChNXvoBuONulAK5pbp8g-17" value="" style="endArrow=none;html=1;rounded=0;entryX=0;entryY=1;entryDx=0;entryDy=0;" parent="1" target="ChNXvoBuONulAK5pbp8g-8" edge="1">
          <mxGeometry width="50" height="50" relative="1" as="geometry">
            <mxPoint x="390" y="300" as="sourcePoint" />
            <mxPoint x="400" y="260" as="targetPoint" />
          </mxGeometry>
        </mxCell>
        <mxCell id="ChNXvoBuONulAK5pbp8g-19" value="" style="endArrow=none;html=1;rounded=0;entryX=0;entryY=1;entryDx=0;entryDy=0;" parent="1" edge="1">
          <mxGeometry width="50" height="50" relative="1" as="geometry">
            <mxPoint x="1024" y="300" as="sourcePoint" />
            <mxPoint x="1024" y="245" as="targetPoint" />
          </mxGeometry>
        </mxCell>
        <mxCell id="ChNXvoBuONulAK5pbp8g-20" value="" style="endArrow=classic;startArrow=classic;html=1;rounded=0;" parent="1" edge="1">
          <mxGeometry width="50" height="50" relative="1" as="geometry">
            <mxPoint x="391" y="290" as="sourcePoint" />
            <mxPoint x="1024" y="290" as="targetPoint" />
          </mxGeometry>
        </mxCell>
        <mxCell id="ChNXvoBuONulAK5pbp8g-21" value="记录的真实数据" style="edgeLabel;html=1;align=center;verticalAlign=middle;resizable=0;points=[];" parent="ChNXvoBuONulAK5pbp8g-20" vertex="1" connectable="0">
          <mxGeometry x="-0.0643" y="2" relative="1" as="geometry">
            <mxPoint as="offset" />
          </mxGeometry>
        </mxCell>
        <mxCell id="nHKpHeA0GXmnpcT4zRDb-1" value="0B&amp;nbsp; &amp;nbsp; &amp;nbsp;01" style="rounded=0;whiteSpace=wrap;html=1;fillColor=#0050ef;fontColor=#ffffff;strokeColor=#001DBC;" vertex="1" parent="1">
          <mxGeometry x="110" y="420" width="100" height="45" as="geometry" />
        </mxCell>
        <mxCell id="nHKpHeA0GXmnpcT4zRDb-2" value="NULL值列表" style="rounded=0;whiteSpace=wrap;html=1;fillColor=#1ba1e2;fontColor=#ffffff;strokeColor=#006EAF;" vertex="1" parent="1">
          <mxGeometry x="210" y="420" width="92" height="45" as="geometry" />
        </mxCell>
        <mxCell id="nHKpHeA0GXmnpcT4zRDb-3" value="记录头信息" style="rounded=0;whiteSpace=wrap;html=1;fillColor=#f8cecc;strokeColor=#b85450;" vertex="1" parent="1">
          <mxGeometry x="302" y="420" width="88" height="45" as="geometry" />
        </mxCell>
        <mxCell id="nHKpHeA0GXmnpcT4zRDb-4" value="row_id" style="rounded=0;whiteSpace=wrap;html=1;fillColor=#f5f5f5;fontColor=#333333;strokeColor=#666666;" vertex="1" parent="1">
          <mxGeometry x="390" y="420" width="92" height="45" as="geometry" />
        </mxCell>
        <mxCell id="nHKpHeA0GXmnpcT4zRDb-5" value="trx_id" style="rounded=0;whiteSpace=wrap;html=1;fillColor=#f5f5f5;fontColor=#333333;strokeColor=#666666;" vertex="1" parent="1">
          <mxGeometry x="482" y="420" width="92" height="45" as="geometry" />
        </mxCell>
        <mxCell id="nHKpHeA0GXmnpcT4zRDb-6" value="roll_ptr" style="rounded=0;whiteSpace=wrap;html=1;fillColor=#f5f5f5;fontColor=#333333;strokeColor=#666666;" vertex="1" parent="1">
          <mxGeometry x="574" y="420" width="92" height="45" as="geometry" />
        </mxCell>
        <mxCell id="nHKpHeA0GXmnpcT4zRDb-7" value="列1值" style="rounded=0;whiteSpace=wrap;html=1;fillColor=#60a917;fontColor=#ffffff;strokeColor=#2D7600;" vertex="1" parent="1">
          <mxGeometry x="666" y="420" width="84" height="45" as="geometry" />
        </mxCell>
        <mxCell id="nHKpHeA0GXmnpcT4zRDb-8" value="列2值" style="rounded=0;whiteSpace=wrap;html=1;fillColor=#60a917;fontColor=#ffffff;strokeColor=#2D7600;" vertex="1" parent="1">
          <mxGeometry x="750" y="420" width="92" height="45" as="geometry" />
        </mxCell>
        <mxCell id="nHKpHeA0GXmnpcT4zRDb-9" value="... ..." style="rounded=0;whiteSpace=wrap;html=1;fillColor=#60a917;fontColor=#ffffff;strokeColor=#2D7600;" vertex="1" parent="1">
          <mxGeometry x="840" y="420" width="92" height="45" as="geometry" />
        </mxCell>
        <mxCell id="nHKpHeA0GXmnpcT4zRDb-10" value="列n值" style="rounded=0;whiteSpace=wrap;html=1;fillColor=#60a917;fontColor=#ffffff;strokeColor=#2D7600;" vertex="1" parent="1">
          <mxGeometry x="932" y="420" width="92" height="45" as="geometry" />
        </mxCell>
        <mxCell id="nHKpHeA0GXmnpcT4zRDb-11" value="" style="endArrow=classic;startArrow=classic;html=1;rounded=0;" edge="1" parent="1">
          <mxGeometry width="50" height="50" relative="1" as="geometry">
            <mxPoint x="110" y="510" as="sourcePoint" />
            <mxPoint x="390" y="510" as="targetPoint" />
          </mxGeometry>
        </mxCell>
        <mxCell id="nHKpHeA0GXmnpcT4zRDb-12" value="记录的额外信息" style="edgeLabel;html=1;align=center;verticalAlign=middle;resizable=0;points=[];" vertex="1" connectable="0" parent="nHKpHeA0GXmnpcT4zRDb-11">
          <mxGeometry x="-0.0643" y="2" relative="1" as="geometry">
            <mxPoint as="offset" />
          </mxGeometry>
        </mxCell>
        <mxCell id="nHKpHeA0GXmnpcT4zRDb-13" value="" style="endArrow=none;html=1;rounded=0;entryX=0;entryY=1;entryDx=0;entryDy=0;" edge="1" parent="1" target="nHKpHeA0GXmnpcT4zRDb-1">
          <mxGeometry width="50" height="50" relative="1" as="geometry">
            <mxPoint x="110" y="520" as="sourcePoint" />
            <mxPoint x="430" y="520" as="targetPoint" />
          </mxGeometry>
        </mxCell>
        <mxCell id="nHKpHeA0GXmnpcT4zRDb-14" value="" style="endArrow=none;html=1;rounded=0;entryX=0;entryY=1;entryDx=0;entryDy=0;" edge="1" parent="1" target="nHKpHeA0GXmnpcT4zRDb-4">
          <mxGeometry width="50" height="50" relative="1" as="geometry">
            <mxPoint x="390" y="520" as="sourcePoint" />
            <mxPoint x="400" y="480" as="targetPoint" />
          </mxGeometry>
        </mxCell>
        <mxCell id="nHKpHeA0GXmnpcT4zRDb-15" value="" style="endArrow=none;html=1;rounded=0;entryX=0;entryY=1;entryDx=0;entryDy=0;" edge="1" parent="1">
          <mxGeometry width="50" height="50" relative="1" as="geometry">
            <mxPoint x="1024" y="520" as="sourcePoint" />
            <mxPoint x="1024" y="465" as="targetPoint" />
          </mxGeometry>
        </mxCell>
        <mxCell id="nHKpHeA0GXmnpcT4zRDb-16" value="" style="endArrow=classic;startArrow=classic;html=1;rounded=0;" edge="1" parent="1">
          <mxGeometry width="50" height="50" relative="1" as="geometry">
            <mxPoint x="391" y="510" as="sourcePoint" />
            <mxPoint x="1024" y="510" as="targetPoint" />
          </mxGeometry>
        </mxCell>
        <mxCell id="nHKpHeA0GXmnpcT4zRDb-17" value="记录的真实数据" style="edgeLabel;html=1;align=center;verticalAlign=middle;resizable=0;points=[];" vertex="1" connectable="0" parent="nHKpHeA0GXmnpcT4zRDb-16">
          <mxGeometry x="-0.0643" y="2" relative="1" as="geometry">
            <mxPoint as="offset" />
          </mxGeometry>
        </mxCell>
        <mxCell id="nHKpHeA0GXmnpcT4zRDb-18" value="" style="endArrow=classic;html=1;rounded=0;entryX=0.5;entryY=1;entryDx=0;entryDy=0;" edge="1" parent="1">
          <mxGeometry width="50" height="50" relative="1" as="geometry">
            <mxPoint x="140.0045454545455" y="430" as="sourcePoint" />
            <mxPoint x="187.28" y="380" as="targetPoint" />
            <Array as="points" />
          </mxGeometry>
        </mxCell>
        <mxCell id="nHKpHeA0GXmnpcT4zRDb-19" value="phone列&lt;br&gt;占用的字节数" style="text;html=1;strokeColor=none;fillColor=none;align=center;verticalAlign=middle;whiteSpace=wrap;rounded=0;" vertex="1" parent="1">
          <mxGeometry x="170" y="340" width="80" height="30" as="geometry" />
        </mxCell>
        <mxCell id="nHKpHeA0GXmnpcT4zRDb-20" value="" style="endArrow=classic;html=1;rounded=0;" edge="1" parent="1">
          <mxGeometry width="50" height="50" relative="1" as="geometry">
            <mxPoint x="180" y="430" as="sourcePoint" />
            <mxPoint x="140" y="380" as="targetPoint" />
            <Array as="points" />
          </mxGeometry>
        </mxCell>
        <mxCell id="nHKpHeA0GXmnpcT4zRDb-21" value="name列&lt;br&gt;占用的字节数" style="text;html=1;strokeColor=none;fillColor=none;align=center;verticalAlign=middle;whiteSpace=wrap;rounded=0;" vertex="1" parent="1">
          <mxGeometry x="80" y="340" width="80" height="30" as="geometry" />
        </mxCell>
        <mxCell id="nHKpHeA0GXmnpcT4zRDb-23" value="08&amp;nbsp; &amp;nbsp; &amp;nbsp;02" style="rounded=0;whiteSpace=wrap;html=1;fillColor=#0050ef;fontColor=#ffffff;strokeColor=#001DBC;" vertex="1" parent="1">
          <mxGeometry x="109" y="650" width="100" height="45" as="geometry" />
        </mxCell>
        <mxCell id="nHKpHeA0GXmnpcT4zRDb-24" value="NULL值列表" style="rounded=0;whiteSpace=wrap;html=1;fillColor=#1ba1e2;fontColor=#ffffff;strokeColor=#006EAF;" vertex="1" parent="1">
          <mxGeometry x="209" y="650" width="92" height="45" as="geometry" />
        </mxCell>
        <mxCell id="nHKpHeA0GXmnpcT4zRDb-25" value="记录头信息" style="rounded=0;whiteSpace=wrap;html=1;fillColor=#f8cecc;strokeColor=#b85450;" vertex="1" parent="1">
          <mxGeometry x="301" y="650" width="89" height="45" as="geometry" />
        </mxCell>
        <mxCell id="nHKpHeA0GXmnpcT4zRDb-26" value="row_id" style="rounded=0;whiteSpace=wrap;html=1;fillColor=#f5f5f5;fontColor=#333333;strokeColor=#666666;" vertex="1" parent="1">
          <mxGeometry x="389" y="650" width="92" height="45" as="geometry" />
        </mxCell>
        <mxCell id="nHKpHeA0GXmnpcT4zRDb-27" value="trx_id" style="rounded=0;whiteSpace=wrap;html=1;fillColor=#f5f5f5;fontColor=#333333;strokeColor=#666666;" vertex="1" parent="1">
          <mxGeometry x="481" y="650" width="92" height="45" as="geometry" />
        </mxCell>
        <mxCell id="nHKpHeA0GXmnpcT4zRDb-28" value="roll_ptr" style="rounded=0;whiteSpace=wrap;html=1;fillColor=#f5f5f5;fontColor=#333333;strokeColor=#666666;" vertex="1" parent="1">
          <mxGeometry x="573" y="650" width="92" height="45" as="geometry" />
        </mxCell>
        <mxCell id="nHKpHeA0GXmnpcT4zRDb-29" value="列1值" style="rounded=0;whiteSpace=wrap;html=1;fillColor=#60a917;fontColor=#ffffff;strokeColor=#2D7600;" vertex="1" parent="1">
          <mxGeometry x="665" y="650" width="84" height="45" as="geometry" />
        </mxCell>
        <mxCell id="nHKpHeA0GXmnpcT4zRDb-30" value="列2值" style="rounded=0;whiteSpace=wrap;html=1;fillColor=#60a917;fontColor=#ffffff;strokeColor=#2D7600;" vertex="1" parent="1">
          <mxGeometry x="749" y="650" width="92" height="45" as="geometry" />
        </mxCell>
        <mxCell id="nHKpHeA0GXmnpcT4zRDb-31" value="... ..." style="rounded=0;whiteSpace=wrap;html=1;fillColor=#60a917;fontColor=#ffffff;strokeColor=#2D7600;" vertex="1" parent="1">
          <mxGeometry x="839" y="650" width="92" height="45" as="geometry" />
        </mxCell>
        <mxCell id="nHKpHeA0GXmnpcT4zRDb-32" value="列n值" style="rounded=0;whiteSpace=wrap;html=1;fillColor=#60a917;fontColor=#ffffff;strokeColor=#2D7600;" vertex="1" parent="1">
          <mxGeometry x="931" y="650" width="92" height="45" as="geometry" />
        </mxCell>
        <mxCell id="nHKpHeA0GXmnpcT4zRDb-33" value="" style="endArrow=classic;startArrow=classic;html=1;rounded=0;" edge="1" parent="1">
          <mxGeometry width="50" height="50" relative="1" as="geometry">
            <mxPoint x="109" y="740" as="sourcePoint" />
            <mxPoint x="389" y="740" as="targetPoint" />
          </mxGeometry>
        </mxCell>
        <mxCell id="nHKpHeA0GXmnpcT4zRDb-34" value="记录的额外信息" style="edgeLabel;html=1;align=center;verticalAlign=middle;resizable=0;points=[];" vertex="1" connectable="0" parent="nHKpHeA0GXmnpcT4zRDb-33">
          <mxGeometry x="-0.0643" y="2" relative="1" as="geometry">
            <mxPoint as="offset" />
          </mxGeometry>
        </mxCell>
        <mxCell id="nHKpHeA0GXmnpcT4zRDb-35" value="" style="endArrow=none;html=1;rounded=0;entryX=0;entryY=1;entryDx=0;entryDy=0;" edge="1" parent="1" target="nHKpHeA0GXmnpcT4zRDb-23">
          <mxGeometry width="50" height="50" relative="1" as="geometry">
            <mxPoint x="109" y="750" as="sourcePoint" />
            <mxPoint x="429" y="750" as="targetPoint" />
          </mxGeometry>
        </mxCell>
        <mxCell id="nHKpHeA0GXmnpcT4zRDb-36" value="" style="endArrow=none;html=1;rounded=0;entryX=0;entryY=1;entryDx=0;entryDy=0;" edge="1" parent="1" target="nHKpHeA0GXmnpcT4zRDb-26">
          <mxGeometry width="50" height="50" relative="1" as="geometry">
            <mxPoint x="389" y="750" as="sourcePoint" />
            <mxPoint x="399" y="710" as="targetPoint" />
          </mxGeometry>
        </mxCell>
        <mxCell id="nHKpHeA0GXmnpcT4zRDb-37" value="" style="endArrow=none;html=1;rounded=0;entryX=0;entryY=1;entryDx=0;entryDy=0;" edge="1" parent="1">
          <mxGeometry width="50" height="50" relative="1" as="geometry">
            <mxPoint x="1023" y="750" as="sourcePoint" />
            <mxPoint x="1023" y="695" as="targetPoint" />
          </mxGeometry>
        </mxCell>
        <mxCell id="nHKpHeA0GXmnpcT4zRDb-38" value="" style="endArrow=classic;startArrow=classic;html=1;rounded=0;" edge="1" parent="1">
          <mxGeometry width="50" height="50" relative="1" as="geometry">
            <mxPoint x="390" y="740" as="sourcePoint" />
            <mxPoint x="1023" y="740" as="targetPoint" />
          </mxGeometry>
        </mxCell>
        <mxCell id="nHKpHeA0GXmnpcT4zRDb-39" value="记录的真实数据" style="edgeLabel;html=1;align=center;verticalAlign=middle;resizable=0;points=[];" vertex="1" connectable="0" parent="nHKpHeA0GXmnpcT4zRDb-38">
          <mxGeometry x="-0.0643" y="2" relative="1" as="geometry">
            <mxPoint as="offset" />
          </mxGeometry>
        </mxCell>
        <mxCell id="nHKpHeA0GXmnpcT4zRDb-40" value="" style="endArrow=classic;html=1;rounded=0;entryX=0.5;entryY=1;entryDx=0;entryDy=0;" edge="1" parent="1">
          <mxGeometry width="50" height="50" relative="1" as="geometry">
            <mxPoint x="139.0045454545455" y="660" as="sourcePoint" />
            <mxPoint x="186.28" y="610" as="targetPoint" />
            <Array as="points" />
          </mxGeometry>
        </mxCell>
        <mxCell id="nHKpHeA0GXmnpcT4zRDb-41" value="phone列&lt;br&gt;占用的字节数" style="text;html=1;strokeColor=none;fillColor=none;align=center;verticalAlign=middle;whiteSpace=wrap;rounded=0;" vertex="1" parent="1">
          <mxGeometry x="169" y="570" width="80" height="30" as="geometry" />
        </mxCell>
        <mxCell id="nHKpHeA0GXmnpcT4zRDb-42" value="" style="endArrow=classic;html=1;rounded=0;" edge="1" parent="1">
          <mxGeometry width="50" height="50" relative="1" as="geometry">
            <mxPoint x="179" y="660" as="sourcePoint" />
            <mxPoint x="139" y="610" as="targetPoint" />
            <Array as="points" />
          </mxGeometry>
        </mxCell>
        <mxCell id="nHKpHeA0GXmnpcT4zRDb-43" value="name列&lt;br&gt;占用的字节数" style="text;html=1;strokeColor=none;fillColor=none;align=center;verticalAlign=middle;whiteSpace=wrap;rounded=0;" vertex="1" parent="1">
          <mxGeometry x="79" y="570" width="80" height="30" as="geometry" />
        </mxCell>
        <mxCell id="nHKpHeA0GXmnpcT4zRDb-62" value="&amp;nbsp; &amp;nbsp; &amp;nbsp; &amp;nbsp; &amp;nbsp;03" style="rounded=0;whiteSpace=wrap;html=1;fillColor=#0050ef;fontColor=#ffffff;strokeColor=#001DBC;" vertex="1" parent="1">
          <mxGeometry x="108" y="890" width="100" height="45" as="geometry" />
        </mxCell>
        <mxCell id="nHKpHeA0GXmnpcT4zRDb-63" value="NULL值列表" style="rounded=0;whiteSpace=wrap;html=1;fillColor=#1ba1e2;fontColor=#ffffff;strokeColor=#006EAF;" vertex="1" parent="1">
          <mxGeometry x="208" y="890" width="92" height="45" as="geometry" />
        </mxCell>
        <mxCell id="nHKpHeA0GXmnpcT4zRDb-64" value="记录头信息" style="rounded=0;whiteSpace=wrap;html=1;fillColor=#f8cecc;strokeColor=#b85450;" vertex="1" parent="1">
          <mxGeometry x="300" y="890" width="89" height="45" as="geometry" />
        </mxCell>
        <mxCell id="nHKpHeA0GXmnpcT4zRDb-65" value="row_id" style="rounded=0;whiteSpace=wrap;html=1;fillColor=#f5f5f5;fontColor=#333333;strokeColor=#666666;" vertex="1" parent="1">
          <mxGeometry x="388" y="890" width="92" height="45" as="geometry" />
        </mxCell>
        <mxCell id="nHKpHeA0GXmnpcT4zRDb-66" value="trx_id" style="rounded=0;whiteSpace=wrap;html=1;fillColor=#f5f5f5;fontColor=#333333;strokeColor=#666666;" vertex="1" parent="1">
          <mxGeometry x="480" y="890" width="92" height="45" as="geometry" />
        </mxCell>
        <mxCell id="nHKpHeA0GXmnpcT4zRDb-67" value="roll_ptr" style="rounded=0;whiteSpace=wrap;html=1;fillColor=#f5f5f5;fontColor=#333333;strokeColor=#666666;" vertex="1" parent="1">
          <mxGeometry x="572" y="890" width="92" height="45" as="geometry" />
        </mxCell>
        <mxCell id="nHKpHeA0GXmnpcT4zRDb-68" value="列1值" style="rounded=0;whiteSpace=wrap;html=1;fillColor=#60a917;fontColor=#ffffff;strokeColor=#2D7600;" vertex="1" parent="1">
          <mxGeometry x="664" y="890" width="84" height="45" as="geometry" />
        </mxCell>
        <mxCell id="nHKpHeA0GXmnpcT4zRDb-69" value="列2值" style="rounded=0;whiteSpace=wrap;html=1;fillColor=#60a917;fontColor=#ffffff;strokeColor=#2D7600;" vertex="1" parent="1">
          <mxGeometry x="748" y="890" width="92" height="45" as="geometry" />
        </mxCell>
        <mxCell id="nHKpHeA0GXmnpcT4zRDb-70" value="... ..." style="rounded=0;whiteSpace=wrap;html=1;fillColor=#60a917;fontColor=#ffffff;strokeColor=#2D7600;" vertex="1" parent="1">
          <mxGeometry x="838" y="890" width="92" height="45" as="geometry" />
        </mxCell>
        <mxCell id="nHKpHeA0GXmnpcT4zRDb-71" value="列n值" style="rounded=0;whiteSpace=wrap;html=1;fillColor=#60a917;fontColor=#ffffff;strokeColor=#2D7600;" vertex="1" parent="1">
          <mxGeometry x="930" y="890" width="92" height="45" as="geometry" />
        </mxCell>
        <mxCell id="nHKpHeA0GXmnpcT4zRDb-72" value="" style="endArrow=classic;startArrow=classic;html=1;rounded=0;" edge="1" parent="1">
          <mxGeometry width="50" height="50" relative="1" as="geometry">
            <mxPoint x="108" y="980" as="sourcePoint" />
            <mxPoint x="388" y="980" as="targetPoint" />
          </mxGeometry>
        </mxCell>
        <mxCell id="nHKpHeA0GXmnpcT4zRDb-73" value="记录的额外信息" style="edgeLabel;html=1;align=center;verticalAlign=middle;resizable=0;points=[];" vertex="1" connectable="0" parent="nHKpHeA0GXmnpcT4zRDb-72">
          <mxGeometry x="-0.0643" y="2" relative="1" as="geometry">
            <mxPoint as="offset" />
          </mxGeometry>
        </mxCell>
        <mxCell id="nHKpHeA0GXmnpcT4zRDb-74" value="" style="endArrow=none;html=1;rounded=0;entryX=0;entryY=1;entryDx=0;entryDy=0;" edge="1" parent="1" target="nHKpHeA0GXmnpcT4zRDb-62">
          <mxGeometry width="50" height="50" relative="1" as="geometry">
            <mxPoint x="108" y="990" as="sourcePoint" />
            <mxPoint x="428" y="990" as="targetPoint" />
          </mxGeometry>
        </mxCell>
        <mxCell id="nHKpHeA0GXmnpcT4zRDb-75" value="" style="endArrow=none;html=1;rounded=0;entryX=0;entryY=1;entryDx=0;entryDy=0;" edge="1" parent="1" target="nHKpHeA0GXmnpcT4zRDb-65">
          <mxGeometry width="50" height="50" relative="1" as="geometry">
            <mxPoint x="388" y="990" as="sourcePoint" />
            <mxPoint x="398" y="950" as="targetPoint" />
          </mxGeometry>
        </mxCell>
        <mxCell id="nHKpHeA0GXmnpcT4zRDb-76" value="" style="endArrow=none;html=1;rounded=0;entryX=0;entryY=1;entryDx=0;entryDy=0;" edge="1" parent="1">
          <mxGeometry width="50" height="50" relative="1" as="geometry">
            <mxPoint x="1022" y="990" as="sourcePoint" />
            <mxPoint x="1022" y="935" as="targetPoint" />
          </mxGeometry>
        </mxCell>
        <mxCell id="nHKpHeA0GXmnpcT4zRDb-77" value="" style="endArrow=classic;startArrow=classic;html=1;rounded=0;" edge="1" parent="1">
          <mxGeometry width="50" height="50" relative="1" as="geometry">
            <mxPoint x="389" y="980" as="sourcePoint" />
            <mxPoint x="1022" y="980" as="targetPoint" />
          </mxGeometry>
        </mxCell>
        <mxCell id="nHKpHeA0GXmnpcT4zRDb-78" value="记录的真实数据" style="edgeLabel;html=1;align=center;verticalAlign=middle;resizable=0;points=[];" vertex="1" connectable="0" parent="nHKpHeA0GXmnpcT4zRDb-77">
          <mxGeometry x="-0.0643" y="2" relative="1" as="geometry">
            <mxPoint as="offset" />
          </mxGeometry>
        </mxCell>
        <mxCell id="nHKpHeA0GXmnpcT4zRDb-81" value="" style="endArrow=classic;html=1;rounded=0;" edge="1" parent="1">
          <mxGeometry width="50" height="50" relative="1" as="geometry">
            <mxPoint x="178" y="900" as="sourcePoint" />
            <mxPoint x="138" y="850" as="targetPoint" />
            <Array as="points" />
          </mxGeometry>
        </mxCell>
        <mxCell id="nHKpHeA0GXmnpcT4zRDb-82" value="name列&lt;br&gt;占用的字节数" style="text;html=1;strokeColor=none;fillColor=none;align=center;verticalAlign=middle;whiteSpace=wrap;rounded=0;" vertex="1" parent="1">
          <mxGeometry x="78" y="810" width="80" height="30" as="geometry" />
        </mxCell>
        <mxCell id="nHKpHeA0GXmnpcT4zRDb-83" value="0" style="rounded=0;whiteSpace=wrap;html=1;fillColor=#ffe6cc;strokeColor=#d79b00;" vertex="1" parent="1">
          <mxGeometry x="1222.5" y="220" width="31" height="60" as="geometry" />
        </mxCell>
        <mxCell id="nHKpHeA0GXmnpcT4zRDb-85" value="0" style="rounded=0;whiteSpace=wrap;html=1;fillColor=#d5e8d4;strokeColor=#82b366;" vertex="1" parent="1">
          <mxGeometry x="1252.5" y="220" width="31" height="60" as="geometry" />
        </mxCell>
        <mxCell id="nHKpHeA0GXmnpcT4zRDb-86" value="0" style="rounded=0;whiteSpace=wrap;html=1;fillColor=#dae8fc;strokeColor=#6c8ebf;" vertex="1" parent="1">
          <mxGeometry x="1283.5" y="220" width="30" height="60" as="geometry" />
        </mxCell>
        <mxCell id="nHKpHeA0GXmnpcT4zRDb-87" value="name" style="rounded=0;whiteSpace=wrap;html=1;fillColor=#dae8fc;strokeColor=#6c8ebf;" vertex="1" parent="1">
          <mxGeometry x="1183" y="130" width="50" height="30" as="geometry" />
        </mxCell>
        <mxCell id="nHKpHeA0GXmnpcT4zRDb-88" value="phone" style="rounded=0;whiteSpace=wrap;html=1;fillColor=#d5e8d4;strokeColor=#82b366;" vertex="1" parent="1">
          <mxGeometry x="1244" y="130" width="50" height="30" as="geometry" />
        </mxCell>
        <mxCell id="nHKpHeA0GXmnpcT4zRDb-89" value="age" style="rounded=0;whiteSpace=wrap;html=1;fillColor=#ffe6cc;strokeColor=#d79b00;" vertex="1" parent="1">
          <mxGeometry x="1303" y="130" width="50" height="30" as="geometry" />
        </mxCell>
        <mxCell id="nHKpHeA0GXmnpcT4zRDb-90" value="" style="endArrow=classic;html=1;rounded=0;exitX=0.5;exitY=1;exitDx=0;exitDy=0;entryX=0.5;entryY=0;entryDx=0;entryDy=0;" edge="1" parent="1" source="nHKpHeA0GXmnpcT4zRDb-87" target="nHKpHeA0GXmnpcT4zRDb-86">
          <mxGeometry width="50" height="50" relative="1" as="geometry">
            <mxPoint x="1292" y="380" as="sourcePoint" />
            <mxPoint x="1342" y="330" as="targetPoint" />
          </mxGeometry>
        </mxCell>
        <mxCell id="nHKpHeA0GXmnpcT4zRDb-91" value="" style="endArrow=classic;html=1;rounded=0;exitX=0.5;exitY=1;exitDx=0;exitDy=0;entryX=0.5;entryY=0;entryDx=0;entryDy=0;" edge="1" parent="1" source="nHKpHeA0GXmnpcT4zRDb-88" target="nHKpHeA0GXmnpcT4zRDb-85">
          <mxGeometry width="50" height="50" relative="1" as="geometry">
            <mxPoint x="1217" y="180" as="sourcePoint" />
            <mxPoint x="1309" y="230" as="targetPoint" />
          </mxGeometry>
        </mxCell>
        <mxCell id="nHKpHeA0GXmnpcT4zRDb-92" value="" style="endArrow=classic;html=1;rounded=0;exitX=0.5;exitY=1;exitDx=0;exitDy=0;entryX=0.5;entryY=0;entryDx=0;entryDy=0;" edge="1" parent="1" source="nHKpHeA0GXmnpcT4zRDb-89" target="nHKpHeA0GXmnpcT4zRDb-83">
          <mxGeometry width="50" height="50" relative="1" as="geometry">
            <mxPoint x="1227" y="190" as="sourcePoint" />
            <mxPoint x="1319" y="240" as="targetPoint" />
          </mxGeometry>
        </mxCell>
        <mxCell id="nHKpHeA0GXmnpcT4zRDb-93" value="NULL值列表" style="text;html=1;strokeColor=none;fillColor=none;align=center;verticalAlign=middle;whiteSpace=wrap;rounded=0;" vertex="1" parent="1">
          <mxGeometry x="1231" y="280" width="74" height="30" as="geometry" />
        </mxCell>
        <mxCell id="nHKpHeA0GXmnpcT4zRDb-94" value="逆序存放" style="text;html=1;strokeColor=none;fillColor=none;align=center;verticalAlign=middle;whiteSpace=wrap;rounded=0;" vertex="1" parent="1">
          <mxGeometry x="1313.5" y="170" width="74" height="30" as="geometry" />
        </mxCell>
        <mxCell id="nHKpHeA0GXmnpcT4zRDb-95" value="" style="shape=flexArrow;endArrow=classic;html=1;rounded=0;" edge="1" parent="1">
          <mxGeometry width="50" height="50" relative="1" as="geometry">
            <mxPoint x="1212" y="100" as="sourcePoint" />
            <mxPoint x="1332" y="100" as="targetPoint" />
          </mxGeometry>
        </mxCell>
        <mxCell id="nHKpHeA0GXmnpcT4zRDb-96" value="列的顺序" style="text;html=1;strokeColor=none;fillColor=none;align=center;verticalAlign=middle;whiteSpace=wrap;rounded=0;" vertex="1" parent="1">
          <mxGeometry x="1232" y="60" width="60" height="30" as="geometry" />
        </mxCell>
        <mxCell id="nHKpHeA0GXmnpcT4zRDb-97" value="0" style="rounded=0;whiteSpace=wrap;html=1;fillColor=#ffe6cc;strokeColor=#d79b00;" vertex="1" parent="1">
          <mxGeometry x="1265" y="450" width="31" height="60" as="geometry" />
        </mxCell>
        <mxCell id="nHKpHeA0GXmnpcT4zRDb-98" value="0" style="rounded=0;whiteSpace=wrap;html=1;fillColor=#d5e8d4;strokeColor=#82b366;" vertex="1" parent="1">
          <mxGeometry x="1295" y="450" width="31" height="60" as="geometry" />
        </mxCell>
        <mxCell id="nHKpHeA0GXmnpcT4zRDb-99" value="0" style="rounded=0;whiteSpace=wrap;html=1;fillColor=#dae8fc;strokeColor=#6c8ebf;" vertex="1" parent="1">
          <mxGeometry x="1326" y="450" width="30" height="60" as="geometry" />
        </mxCell>
        <mxCell id="nHKpHeA0GXmnpcT4zRDb-100" value="name" style="rounded=0;whiteSpace=wrap;html=1;fillColor=#dae8fc;strokeColor=#6c8ebf;" vertex="1" parent="1">
          <mxGeometry x="1225.5" y="360" width="50" height="30" as="geometry" />
        </mxCell>
        <mxCell id="nHKpHeA0GXmnpcT4zRDb-101" value="phone" style="rounded=0;whiteSpace=wrap;html=1;fillColor=#d5e8d4;strokeColor=#82b366;" vertex="1" parent="1">
          <mxGeometry x="1286.5" y="360" width="50" height="30" as="geometry" />
        </mxCell>
        <mxCell id="nHKpHeA0GXmnpcT4zRDb-102" value="age" style="rounded=0;whiteSpace=wrap;html=1;fillColor=#ffe6cc;strokeColor=#d79b00;" vertex="1" parent="1">
          <mxGeometry x="1345.5" y="360" width="50" height="30" as="geometry" />
        </mxCell>
        <mxCell id="nHKpHeA0GXmnpcT4zRDb-103" value="" style="endArrow=classic;html=1;rounded=0;exitX=0.5;exitY=1;exitDx=0;exitDy=0;entryX=0.5;entryY=0;entryDx=0;entryDy=0;" edge="1" parent="1" source="nHKpHeA0GXmnpcT4zRDb-100" target="nHKpHeA0GXmnpcT4zRDb-99">
          <mxGeometry width="50" height="50" relative="1" as="geometry">
            <mxPoint x="1334.5" y="610" as="sourcePoint" />
            <mxPoint x="1384.5" y="560" as="targetPoint" />
          </mxGeometry>
        </mxCell>
        <mxCell id="nHKpHeA0GXmnpcT4zRDb-104" value="" style="endArrow=classic;html=1;rounded=0;exitX=0.5;exitY=1;exitDx=0;exitDy=0;entryX=0.5;entryY=0;entryDx=0;entryDy=0;" edge="1" parent="1" source="nHKpHeA0GXmnpcT4zRDb-101" target="nHKpHeA0GXmnpcT4zRDb-98">
          <mxGeometry width="50" height="50" relative="1" as="geometry">
            <mxPoint x="1259.5" y="410" as="sourcePoint" />
            <mxPoint x="1351.5" y="460" as="targetPoint" />
          </mxGeometry>
        </mxCell>
        <mxCell id="nHKpHeA0GXmnpcT4zRDb-105" value="" style="endArrow=classic;html=1;rounded=0;exitX=0.5;exitY=1;exitDx=0;exitDy=0;entryX=0.5;entryY=0;entryDx=0;entryDy=0;" edge="1" parent="1" source="nHKpHeA0GXmnpcT4zRDb-102" target="nHKpHeA0GXmnpcT4zRDb-97">
          <mxGeometry width="50" height="50" relative="1" as="geometry">
            <mxPoint x="1269.5" y="420" as="sourcePoint" />
            <mxPoint x="1361.5" y="470" as="targetPoint" />
          </mxGeometry>
        </mxCell>
        <mxCell id="nHKpHeA0GXmnpcT4zRDb-110" value="0" style="rounded=0;whiteSpace=wrap;html=1;fillColor=#f5f5f5;strokeColor=#666666;fontColor=#333333;" vertex="1" parent="1">
          <mxGeometry x="1234" y="450" width="31" height="60" as="geometry" />
        </mxCell>
        <mxCell id="nHKpHeA0GXmnpcT4zRDb-111" value="0" style="rounded=0;whiteSpace=wrap;html=1;fillColor=#f5f5f5;strokeColor=#666666;fontColor=#333333;" vertex="1" parent="1">
          <mxGeometry x="1203" y="450" width="31" height="60" as="geometry" />
        </mxCell>
        <mxCell id="nHKpHeA0GXmnpcT4zRDb-112" value="0" style="rounded=0;whiteSpace=wrap;html=1;fillColor=#f5f5f5;strokeColor=#666666;fontColor=#333333;" vertex="1" parent="1">
          <mxGeometry x="1172" y="450" width="31" height="60" as="geometry" />
        </mxCell>
        <mxCell id="nHKpHeA0GXmnpcT4zRDb-113" value="0" style="rounded=0;whiteSpace=wrap;html=1;fillColor=#f5f5f5;strokeColor=#666666;fontColor=#333333;" vertex="1" parent="1">
          <mxGeometry x="1141" y="450" width="31" height="60" as="geometry" />
        </mxCell>
        <mxCell id="nHKpHeA0GXmnpcT4zRDb-115" value="0" style="rounded=0;whiteSpace=wrap;html=1;fillColor=#f5f5f5;strokeColor=#666666;fontColor=#333333;" vertex="1" parent="1">
          <mxGeometry x="1110" y="450" width="31" height="60" as="geometry" />
        </mxCell>
        <mxCell id="nHKpHeA0GXmnpcT4zRDb-131" value="1" style="rounded=0;whiteSpace=wrap;html=1;fillColor=#ffe6cc;strokeColor=#d79b00;" vertex="1" parent="1">
          <mxGeometry x="1262.75" y="690" width="31" height="60" as="geometry" />
        </mxCell>
        <mxCell id="nHKpHeA0GXmnpcT4zRDb-132" value="0" style="rounded=0;whiteSpace=wrap;html=1;fillColor=#d5e8d4;strokeColor=#82b366;" vertex="1" parent="1">
          <mxGeometry x="1292.75" y="690" width="31" height="60" as="geometry" />
        </mxCell>
        <mxCell id="nHKpHeA0GXmnpcT4zRDb-133" value="0" style="rounded=0;whiteSpace=wrap;html=1;fillColor=#dae8fc;strokeColor=#6c8ebf;" vertex="1" parent="1">
          <mxGeometry x="1323.75" y="690" width="30" height="60" as="geometry" />
        </mxCell>
        <mxCell id="nHKpHeA0GXmnpcT4zRDb-134" value="name" style="rounded=0;whiteSpace=wrap;html=1;fillColor=#dae8fc;strokeColor=#6c8ebf;" vertex="1" parent="1">
          <mxGeometry x="1223.25" y="600" width="50" height="30" as="geometry" />
        </mxCell>
        <mxCell id="nHKpHeA0GXmnpcT4zRDb-135" value="phone" style="rounded=0;whiteSpace=wrap;html=1;fillColor=#d5e8d4;strokeColor=#82b366;" vertex="1" parent="1">
          <mxGeometry x="1284.25" y="600" width="50" height="30" as="geometry" />
        </mxCell>
        <mxCell id="nHKpHeA0GXmnpcT4zRDb-136" value="age" style="rounded=0;whiteSpace=wrap;html=1;fillColor=#ffe6cc;strokeColor=#d79b00;" vertex="1" parent="1">
          <mxGeometry x="1343.25" y="600" width="50" height="30" as="geometry" />
        </mxCell>
        <mxCell id="nHKpHeA0GXmnpcT4zRDb-137" value="" style="endArrow=classic;html=1;rounded=0;exitX=0.5;exitY=1;exitDx=0;exitDy=0;entryX=0.5;entryY=0;entryDx=0;entryDy=0;" edge="1" parent="1" source="nHKpHeA0GXmnpcT4zRDb-134" target="nHKpHeA0GXmnpcT4zRDb-133">
          <mxGeometry width="50" height="50" relative="1" as="geometry">
            <mxPoint x="1332.25" y="850" as="sourcePoint" />
            <mxPoint x="1382.25" y="800" as="targetPoint" />
          </mxGeometry>
        </mxCell>
        <mxCell id="nHKpHeA0GXmnpcT4zRDb-138" value="" style="endArrow=classic;html=1;rounded=0;exitX=0.5;exitY=1;exitDx=0;exitDy=0;entryX=0.5;entryY=0;entryDx=0;entryDy=0;" edge="1" parent="1" source="nHKpHeA0GXmnpcT4zRDb-135" target="nHKpHeA0GXmnpcT4zRDb-132">
          <mxGeometry width="50" height="50" relative="1" as="geometry">
            <mxPoint x="1257.25" y="650" as="sourcePoint" />
            <mxPoint x="1349.25" y="700" as="targetPoint" />
          </mxGeometry>
        </mxCell>
        <mxCell id="nHKpHeA0GXmnpcT4zRDb-139" value="" style="endArrow=classic;html=1;rounded=0;exitX=0.5;exitY=1;exitDx=0;exitDy=0;entryX=0.5;entryY=0;entryDx=0;entryDy=0;" edge="1" parent="1" source="nHKpHeA0GXmnpcT4zRDb-136" target="nHKpHeA0GXmnpcT4zRDb-131">
          <mxGeometry width="50" height="50" relative="1" as="geometry">
            <mxPoint x="1267.25" y="660" as="sourcePoint" />
            <mxPoint x="1359.25" y="710" as="targetPoint" />
          </mxGeometry>
        </mxCell>
        <mxCell id="nHKpHeA0GXmnpcT4zRDb-143" value="0" style="rounded=0;whiteSpace=wrap;html=1;fillColor=#f5f5f5;strokeColor=#666666;fontColor=#333333;" vertex="1" parent="1">
          <mxGeometry x="1231.75" y="690" width="31" height="60" as="geometry" />
        </mxCell>
        <mxCell id="nHKpHeA0GXmnpcT4zRDb-144" value="0" style="rounded=0;whiteSpace=wrap;html=1;fillColor=#f5f5f5;strokeColor=#666666;fontColor=#333333;" vertex="1" parent="1">
          <mxGeometry x="1200.75" y="690" width="31" height="60" as="geometry" />
        </mxCell>
        <mxCell id="nHKpHeA0GXmnpcT4zRDb-145" value="0" style="rounded=0;whiteSpace=wrap;html=1;fillColor=#f5f5f5;strokeColor=#666666;fontColor=#333333;" vertex="1" parent="1">
          <mxGeometry x="1169.75" y="690" width="31" height="60" as="geometry" />
        </mxCell>
        <mxCell id="nHKpHeA0GXmnpcT4zRDb-146" value="0" style="rounded=0;whiteSpace=wrap;html=1;fillColor=#f5f5f5;strokeColor=#666666;fontColor=#333333;" vertex="1" parent="1">
          <mxGeometry x="1138.75" y="690" width="31" height="60" as="geometry" />
        </mxCell>
        <mxCell id="nHKpHeA0GXmnpcT4zRDb-147" value="0" style="rounded=0;whiteSpace=wrap;html=1;fillColor=#f5f5f5;strokeColor=#666666;fontColor=#333333;" vertex="1" parent="1">
          <mxGeometry x="1107.75" y="690" width="31" height="60" as="geometry" />
        </mxCell>
        <mxCell id="nHKpHeA0GXmnpcT4zRDb-148" value="1" style="rounded=0;whiteSpace=wrap;html=1;fillColor=#ffe6cc;strokeColor=#d79b00;" vertex="1" parent="1">
          <mxGeometry x="1262.75" y="927.5" width="31" height="60" as="geometry" />
        </mxCell>
        <mxCell id="nHKpHeA0GXmnpcT4zRDb-149" value="1" style="rounded=0;whiteSpace=wrap;html=1;fillColor=#d5e8d4;strokeColor=#82b366;" vertex="1" parent="1">
          <mxGeometry x="1292.75" y="927.5" width="31" height="60" as="geometry" />
        </mxCell>
        <mxCell id="nHKpHeA0GXmnpcT4zRDb-150" value="0" style="rounded=0;whiteSpace=wrap;html=1;fillColor=#dae8fc;strokeColor=#6c8ebf;" vertex="1" parent="1">
          <mxGeometry x="1323.75" y="927.5" width="30" height="60" as="geometry" />
        </mxCell>
        <mxCell id="nHKpHeA0GXmnpcT4zRDb-151" value="name" style="rounded=0;whiteSpace=wrap;html=1;fillColor=#dae8fc;strokeColor=#6c8ebf;" vertex="1" parent="1">
          <mxGeometry x="1223.25" y="837.5" width="50" height="30" as="geometry" />
        </mxCell>
        <mxCell id="nHKpHeA0GXmnpcT4zRDb-152" value="phone" style="rounded=0;whiteSpace=wrap;html=1;fillColor=#d5e8d4;strokeColor=#82b366;" vertex="1" parent="1">
          <mxGeometry x="1284.25" y="837.5" width="50" height="30" as="geometry" />
        </mxCell>
        <mxCell id="nHKpHeA0GXmnpcT4zRDb-153" value="age" style="rounded=0;whiteSpace=wrap;html=1;fillColor=#ffe6cc;strokeColor=#d79b00;" vertex="1" parent="1">
          <mxGeometry x="1343.25" y="837.5" width="50" height="30" as="geometry" />
        </mxCell>
        <mxCell id="nHKpHeA0GXmnpcT4zRDb-154" value="" style="endArrow=classic;html=1;rounded=0;exitX=0.5;exitY=1;exitDx=0;exitDy=0;entryX=0.5;entryY=0;entryDx=0;entryDy=0;" edge="1" parent="1" source="nHKpHeA0GXmnpcT4zRDb-151" target="nHKpHeA0GXmnpcT4zRDb-150">
          <mxGeometry width="50" height="50" relative="1" as="geometry">
            <mxPoint x="1332.25" y="1087.5" as="sourcePoint" />
            <mxPoint x="1382.25" y="1037.5" as="targetPoint" />
          </mxGeometry>
        </mxCell>
        <mxCell id="nHKpHeA0GXmnpcT4zRDb-155" value="" style="endArrow=classic;html=1;rounded=0;exitX=0.5;exitY=1;exitDx=0;exitDy=0;entryX=0.5;entryY=0;entryDx=0;entryDy=0;" edge="1" parent="1" source="nHKpHeA0GXmnpcT4zRDb-152" target="nHKpHeA0GXmnpcT4zRDb-149">
          <mxGeometry width="50" height="50" relative="1" as="geometry">
            <mxPoint x="1257.25" y="887.5" as="sourcePoint" />
            <mxPoint x="1349.25" y="937.5" as="targetPoint" />
          </mxGeometry>
        </mxCell>
        <mxCell id="nHKpHeA0GXmnpcT4zRDb-156" value="" style="endArrow=classic;html=1;rounded=0;exitX=0.5;exitY=1;exitDx=0;exitDy=0;entryX=0.5;entryY=0;entryDx=0;entryDy=0;" edge="1" parent="1" source="nHKpHeA0GXmnpcT4zRDb-153" target="nHKpHeA0GXmnpcT4zRDb-148">
          <mxGeometry width="50" height="50" relative="1" as="geometry">
            <mxPoint x="1267.25" y="897.5" as="sourcePoint" />
            <mxPoint x="1359.25" y="947.5" as="targetPoint" />
          </mxGeometry>
        </mxCell>
        <mxCell id="nHKpHeA0GXmnpcT4zRDb-158" value="0" style="rounded=0;whiteSpace=wrap;html=1;fillColor=#f5f5f5;strokeColor=#666666;fontColor=#333333;" vertex="1" parent="1">
          <mxGeometry x="1231.75" y="927.5" width="31" height="60" as="geometry" />
        </mxCell>
        <mxCell id="nHKpHeA0GXmnpcT4zRDb-159" value="0" style="rounded=0;whiteSpace=wrap;html=1;fillColor=#f5f5f5;strokeColor=#666666;fontColor=#333333;" vertex="1" parent="1">
          <mxGeometry x="1200.75" y="927.5" width="31" height="60" as="geometry" />
        </mxCell>
        <mxCell id="nHKpHeA0GXmnpcT4zRDb-160" value="0" style="rounded=0;whiteSpace=wrap;html=1;fillColor=#f5f5f5;strokeColor=#666666;fontColor=#333333;" vertex="1" parent="1">
          <mxGeometry x="1169.75" y="927.5" width="31" height="60" as="geometry" />
        </mxCell>
        <mxCell id="nHKpHeA0GXmnpcT4zRDb-161" value="0" style="rounded=0;whiteSpace=wrap;html=1;fillColor=#f5f5f5;strokeColor=#666666;fontColor=#333333;" vertex="1" parent="1">
          <mxGeometry x="1138.75" y="927.5" width="31" height="60" as="geometry" />
        </mxCell>
        <mxCell id="nHKpHeA0GXmnpcT4zRDb-162" value="0" style="rounded=0;whiteSpace=wrap;html=1;fillColor=#f5f5f5;strokeColor=#666666;fontColor=#333333;" vertex="1" parent="1">
          <mxGeometry x="1107.75" y="927.5" width="31" height="60" as="geometry" />
        </mxCell>
        <mxCell id="nHKpHeA0GXmnpcT4zRDb-166" value="0B&amp;nbsp; &amp;nbsp; &amp;nbsp;01" style="rounded=0;whiteSpace=wrap;html=1;fillColor=#0050ef;fontColor=#ffffff;strokeColor=#001DBC;" vertex="1" parent="1">
          <mxGeometry x="110" y="1219" width="100" height="45" as="geometry" />
        </mxCell>
        <mxCell id="nHKpHeA0GXmnpcT4zRDb-167" value="00" style="rounded=0;whiteSpace=wrap;html=1;fillColor=#1ba1e2;fontColor=#ffffff;strokeColor=#006EAF;" vertex="1" parent="1">
          <mxGeometry x="210" y="1219" width="92" height="45" as="geometry" />
        </mxCell>
        <mxCell id="nHKpHeA0GXmnpcT4zRDb-168" value="记录头信息" style="rounded=0;whiteSpace=wrap;html=1;fillColor=#f8cecc;strokeColor=#b85450;" vertex="1" parent="1">
          <mxGeometry x="302" y="1219" width="88" height="45" as="geometry" />
        </mxCell>
        <mxCell id="nHKpHeA0GXmnpcT4zRDb-169" value="row_id" style="rounded=0;whiteSpace=wrap;html=1;fillColor=#f5f5f5;fontColor=#333333;strokeColor=#666666;" vertex="1" parent="1">
          <mxGeometry x="390" y="1219" width="92" height="45" as="geometry" />
        </mxCell>
        <mxCell id="nHKpHeA0GXmnpcT4zRDb-170" value="trx_id" style="rounded=0;whiteSpace=wrap;html=1;fillColor=#f5f5f5;fontColor=#333333;strokeColor=#666666;" vertex="1" parent="1">
          <mxGeometry x="482" y="1219" width="92" height="45" as="geometry" />
        </mxCell>
        <mxCell id="nHKpHeA0GXmnpcT4zRDb-171" value="roll_ptr" style="rounded=0;whiteSpace=wrap;html=1;fillColor=#f5f5f5;fontColor=#333333;strokeColor=#666666;" vertex="1" parent="1">
          <mxGeometry x="574" y="1219" width="92" height="45" as="geometry" />
        </mxCell>
        <mxCell id="nHKpHeA0GXmnpcT4zRDb-172" value="列1值" style="rounded=0;whiteSpace=wrap;html=1;fillColor=#60a917;fontColor=#ffffff;strokeColor=#2D7600;" vertex="1" parent="1">
          <mxGeometry x="666" y="1219" width="84" height="45" as="geometry" />
        </mxCell>
        <mxCell id="nHKpHeA0GXmnpcT4zRDb-173" value="列2值" style="rounded=0;whiteSpace=wrap;html=1;fillColor=#60a917;fontColor=#ffffff;strokeColor=#2D7600;" vertex="1" parent="1">
          <mxGeometry x="750" y="1219" width="92" height="45" as="geometry" />
        </mxCell>
        <mxCell id="nHKpHeA0GXmnpcT4zRDb-174" value="... ..." style="rounded=0;whiteSpace=wrap;html=1;fillColor=#60a917;fontColor=#ffffff;strokeColor=#2D7600;" vertex="1" parent="1">
          <mxGeometry x="840" y="1219" width="92" height="45" as="geometry" />
        </mxCell>
        <mxCell id="nHKpHeA0GXmnpcT4zRDb-175" value="列n值" style="rounded=0;whiteSpace=wrap;html=1;fillColor=#60a917;fontColor=#ffffff;strokeColor=#2D7600;" vertex="1" parent="1">
          <mxGeometry x="932" y="1219" width="92" height="45" as="geometry" />
        </mxCell>
        <mxCell id="nHKpHeA0GXmnpcT4zRDb-187" value="08&amp;nbsp; &amp;nbsp; &amp;nbsp;02" style="rounded=0;whiteSpace=wrap;html=1;fillColor=#0050ef;fontColor=#ffffff;strokeColor=#001DBC;" vertex="1" parent="1">
          <mxGeometry x="110" y="1264" width="100" height="45" as="geometry" />
        </mxCell>
        <mxCell id="nHKpHeA0GXmnpcT4zRDb-188" value="04" style="rounded=0;whiteSpace=wrap;html=1;fillColor=#1ba1e2;fontColor=#ffffff;strokeColor=#006EAF;" vertex="1" parent="1">
          <mxGeometry x="210" y="1264" width="92" height="45" as="geometry" />
        </mxCell>
        <mxCell id="nHKpHeA0GXmnpcT4zRDb-189" value="记录头信息" style="rounded=0;whiteSpace=wrap;html=1;fillColor=#f8cecc;strokeColor=#b85450;" vertex="1" parent="1">
          <mxGeometry x="302" y="1264" width="89" height="45" as="geometry" />
        </mxCell>
        <mxCell id="nHKpHeA0GXmnpcT4zRDb-190" value="row_id" style="rounded=0;whiteSpace=wrap;html=1;fillColor=#f5f5f5;fontColor=#333333;strokeColor=#666666;" vertex="1" parent="1">
          <mxGeometry x="390" y="1264" width="92" height="45" as="geometry" />
        </mxCell>
        <mxCell id="nHKpHeA0GXmnpcT4zRDb-191" value="trx_id" style="rounded=0;whiteSpace=wrap;html=1;fillColor=#f5f5f5;fontColor=#333333;strokeColor=#666666;" vertex="1" parent="1">
          <mxGeometry x="482" y="1264" width="92" height="45" as="geometry" />
        </mxCell>
        <mxCell id="nHKpHeA0GXmnpcT4zRDb-192" value="roll_ptr" style="rounded=0;whiteSpace=wrap;html=1;fillColor=#f5f5f5;fontColor=#333333;strokeColor=#666666;" vertex="1" parent="1">
          <mxGeometry x="574" y="1264" width="92" height="45" as="geometry" />
        </mxCell>
        <mxCell id="nHKpHeA0GXmnpcT4zRDb-193" value="列1值" style="rounded=0;whiteSpace=wrap;html=1;fillColor=#60a917;fontColor=#ffffff;strokeColor=#2D7600;" vertex="1" parent="1">
          <mxGeometry x="666" y="1264" width="84" height="45" as="geometry" />
        </mxCell>
        <mxCell id="nHKpHeA0GXmnpcT4zRDb-194" value="列2值" style="rounded=0;whiteSpace=wrap;html=1;fillColor=#60a917;fontColor=#ffffff;strokeColor=#2D7600;" vertex="1" parent="1">
          <mxGeometry x="750" y="1264" width="92" height="45" as="geometry" />
        </mxCell>
        <mxCell id="nHKpHeA0GXmnpcT4zRDb-195" value="... ..." style="rounded=0;whiteSpace=wrap;html=1;fillColor=#60a917;fontColor=#ffffff;strokeColor=#2D7600;" vertex="1" parent="1">
          <mxGeometry x="840" y="1264" width="92" height="45" as="geometry" />
        </mxCell>
        <mxCell id="nHKpHeA0GXmnpcT4zRDb-196" value="列n值" style="rounded=0;whiteSpace=wrap;html=1;fillColor=#60a917;fontColor=#ffffff;strokeColor=#2D7600;" vertex="1" parent="1">
          <mxGeometry x="932" y="1264" width="92" height="45" as="geometry" />
        </mxCell>
        <mxCell id="nHKpHeA0GXmnpcT4zRDb-208" value="&amp;nbsp; &amp;nbsp; &amp;nbsp; &amp;nbsp; &amp;nbsp;03" style="rounded=0;whiteSpace=wrap;html=1;fillColor=#0050ef;fontColor=#ffffff;strokeColor=#001DBC;" vertex="1" parent="1">
          <mxGeometry x="110" y="1309" width="100" height="45" as="geometry" />
        </mxCell>
        <mxCell id="nHKpHeA0GXmnpcT4zRDb-209" value="06" style="rounded=0;whiteSpace=wrap;html=1;fillColor=#1ba1e2;fontColor=#ffffff;strokeColor=#006EAF;" vertex="1" parent="1">
          <mxGeometry x="210" y="1309" width="92" height="45" as="geometry" />
        </mxCell>
        <mxCell id="nHKpHeA0GXmnpcT4zRDb-210" value="记录头信息" style="rounded=0;whiteSpace=wrap;html=1;fillColor=#f8cecc;strokeColor=#b85450;" vertex="1" parent="1">
          <mxGeometry x="302" y="1309" width="89" height="45" as="geometry" />
        </mxCell>
        <mxCell id="nHKpHeA0GXmnpcT4zRDb-211" value="row_id" style="rounded=0;whiteSpace=wrap;html=1;fillColor=#f5f5f5;fontColor=#333333;strokeColor=#666666;" vertex="1" parent="1">
          <mxGeometry x="390" y="1309" width="92" height="45" as="geometry" />
        </mxCell>
        <mxCell id="nHKpHeA0GXmnpcT4zRDb-212" value="trx_id" style="rounded=0;whiteSpace=wrap;html=1;fillColor=#f5f5f5;fontColor=#333333;strokeColor=#666666;" vertex="1" parent="1">
          <mxGeometry x="482" y="1309" width="92" height="45" as="geometry" />
        </mxCell>
        <mxCell id="nHKpHeA0GXmnpcT4zRDb-213" value="roll_ptr" style="rounded=0;whiteSpace=wrap;html=1;fillColor=#f5f5f5;fontColor=#333333;strokeColor=#666666;" vertex="1" parent="1">
          <mxGeometry x="574" y="1309" width="92" height="45" as="geometry" />
        </mxCell>
        <mxCell id="nHKpHeA0GXmnpcT4zRDb-214" value="列1值" style="rounded=0;whiteSpace=wrap;html=1;fillColor=#60a917;fontColor=#ffffff;strokeColor=#2D7600;" vertex="1" parent="1">
          <mxGeometry x="666" y="1309" width="84" height="45" as="geometry" />
        </mxCell>
        <mxCell id="nHKpHeA0GXmnpcT4zRDb-215" value="列2值" style="rounded=0;whiteSpace=wrap;html=1;fillColor=#60a917;fontColor=#ffffff;strokeColor=#2D7600;" vertex="1" parent="1">
          <mxGeometry x="750" y="1309" width="92" height="45" as="geometry" />
        </mxCell>
        <mxCell id="nHKpHeA0GXmnpcT4zRDb-216" value="... ..." style="rounded=0;whiteSpace=wrap;html=1;fillColor=#60a917;fontColor=#ffffff;strokeColor=#2D7600;" vertex="1" parent="1">
          <mxGeometry x="840" y="1309" width="92" height="45" as="geometry" />
        </mxCell>
        <mxCell id="nHKpHeA0GXmnpcT4zRDb-217" value="列n值" style="rounded=0;whiteSpace=wrap;html=1;fillColor=#60a917;fontColor=#ffffff;strokeColor=#2D7600;" vertex="1" parent="1">
          <mxGeometry x="932" y="1309" width="92" height="45" as="geometry" />
        </mxCell>
        <mxCell id="nHKpHeA0GXmnpcT4zRDb-218" value="" style="endArrow=classic;startArrow=classic;html=1;rounded=0;" edge="1" parent="1">
          <mxGeometry width="50" height="50" relative="1" as="geometry">
            <mxPoint x="110" y="1399" as="sourcePoint" />
            <mxPoint x="390" y="1399" as="targetPoint" />
          </mxGeometry>
        </mxCell>
        <mxCell id="nHKpHeA0GXmnpcT4zRDb-219" value="记录的额外信息" style="edgeLabel;html=1;align=center;verticalAlign=middle;resizable=0;points=[];" vertex="1" connectable="0" parent="nHKpHeA0GXmnpcT4zRDb-218">
          <mxGeometry x="-0.0643" y="2" relative="1" as="geometry">
            <mxPoint as="offset" />
          </mxGeometry>
        </mxCell>
        <mxCell id="nHKpHeA0GXmnpcT4zRDb-220" value="" style="endArrow=none;html=1;rounded=0;entryX=0;entryY=1;entryDx=0;entryDy=0;" edge="1" parent="1" target="nHKpHeA0GXmnpcT4zRDb-208">
          <mxGeometry width="50" height="50" relative="1" as="geometry">
            <mxPoint x="110" y="1409" as="sourcePoint" />
            <mxPoint x="430" y="1409" as="targetPoint" />
          </mxGeometry>
        </mxCell>
        <mxCell id="nHKpHeA0GXmnpcT4zRDb-221" value="" style="endArrow=none;html=1;rounded=0;entryX=0;entryY=1;entryDx=0;entryDy=0;" edge="1" parent="1" target="nHKpHeA0GXmnpcT4zRDb-211">
          <mxGeometry width="50" height="50" relative="1" as="geometry">
            <mxPoint x="390" y="1409" as="sourcePoint" />
            <mxPoint x="400" y="1369" as="targetPoint" />
          </mxGeometry>
        </mxCell>
        <mxCell id="nHKpHeA0GXmnpcT4zRDb-222" value="" style="endArrow=none;html=1;rounded=0;entryX=0;entryY=1;entryDx=0;entryDy=0;" edge="1" parent="1">
          <mxGeometry width="50" height="50" relative="1" as="geometry">
            <mxPoint x="1024" y="1409" as="sourcePoint" />
            <mxPoint x="1024" y="1354" as="targetPoint" />
          </mxGeometry>
        </mxCell>
        <mxCell id="nHKpHeA0GXmnpcT4zRDb-223" value="" style="endArrow=classic;startArrow=classic;html=1;rounded=0;" edge="1" parent="1">
          <mxGeometry width="50" height="50" relative="1" as="geometry">
            <mxPoint x="391" y="1399" as="sourcePoint" />
            <mxPoint x="1024" y="1399" as="targetPoint" />
          </mxGeometry>
        </mxCell>
        <mxCell id="nHKpHeA0GXmnpcT4zRDb-224" value="记录的真实数据" style="edgeLabel;html=1;align=center;verticalAlign=middle;resizable=0;points=[];" vertex="1" connectable="0" parent="nHKpHeA0GXmnpcT4zRDb-223">
          <mxGeometry x="-0.0643" y="2" relative="1" as="geometry">
            <mxPoint as="offset" />
          </mxGeometry>
        </mxCell>
        <mxCell id="nHKpHeA0GXmnpcT4zRDb-410" value="" style="shape=image;verticalLabelPosition=bottom;labelBackgroundColor=default;verticalAlign=top;aspect=fixed;imageAspect=0;image=data:image/png,iVBORw0KGgoAAAANSUhEUgAAA7AAAAEICAYAAABmuxjzAAABT2lDQ1BJQ0MgUHJvZmlsZQAAGJV1kF0rg2EYx3970coUB8oJWXEwNdKm5Eh7yVopCyuj1LPHXtQ29549yDfwITjj3NnKCcqBcxKfwKEDJcV6XLdhQ667q/+vf/+urvsCN4ZSZS9QqdrWYjIWWMmuBnwP+OmTN4zHMOsqmk7PS4Qv/VnPt7i0Xo/rWc5YI/GYnL3K+o9Td3MDZ3/zP6p7I183Rd+kg6aybHCNCqd3baVZmn5LlhLe11xs8YHmXItPPjLLi3HhS+E+s2RsCN8Ih3IdfrGDK+Vt83MHvX1PvppZ0io9SIYw08wwSeyf3NRHLs4Wij0sNilSwiZAVBxFmbxwiiomE4SEwzItTETf9/fd2p5agJkdcBttbz0BjRHorbW9oPyjtwAXa8qwjO9rup699UIk3OIeC7peHOdpCHyn0LQc5/XQcZpH4LmH89o7o5Bfc5VgoGoAAAA4ZVhJZk1NACoAAAAIAAGHaQAEAAAAAQAAABoAAAAAAAKgAgAEAAAAAQAAA7CgAwAEAAAAAQAAAQgAAAAA8vh4XgAAQABJREFUeAHtvQl0FdeZqPsLhBgkIYlBQoxiHmwmg21GY2M8gfE8xXacOHPS3TfdN91913qv+62+q/utvrdfp5Pue3OTjtMdx47jOHY8TxgbY4wZDGaeZ2QEEiChEYGQ4NVfokp15nN06pw6w7dZh6raw7/3/qr2Vv219/53zqLFS66I4Zrq6/QgFy9eNI/8BwEIQAACEIAABCDgDoHevXubgnjPcocnUiAAgewl0CN7q07NIQABCEAAAhCAAAQgAAEIQCCdCKDAptPdoqwQgAAEIAABCEAAAhCAAASymAAKbBbffKoOAQhAAAIQgAAEIAABCEAgnQjk+hfWWqPh7881BCAAAQhAAAIQgEB8BHjPio8fqSEAAQgwAsszAAEIQAACEIAABCAAAQhAAAJpQSBgBLZv375pUfBIhWxvbzej5OYGVDFSUsIh4BkBnlvP0JNxFhGgnWXRzaaqEHCJAP2GSyARkxEErPbQ3NzsSX0YgfUEO5lCAAIQgAAEIAABCEAAAhCAQKwEUGBjJUZ8CEAAAhCAAAQgAAEIQAACEPCEAAqsJ9jJFAIQgAAEIAABCEAAAhCAAARiJYACGysx4kMAAhCAAAQgAAEIQAACEICAJwRQYD3BTqYQgAAEIAABCEAAAhCAAAQgECsBFNhYiREfAhCAAAQgAAEIQAACEIAABDwhgALrCXYyhQAEIAABCEAAAhCAAAQgAIFYCaDAxkqM+BCAAAQgAAEIQAACEIAABCDgCQEUWE+wkykEIAABCEAAAhCAAAQgAAEIxEoABTZWYsSHAAQgAAEIQAACEIAABCAAAU8IoMB6gp1MIQABCEAAAhCAAAQgAAEIQCBWArmxJiC+twRyH/3LqArQ/tI/m/G+9qd/FVX8UJF+87//v1BBUfv3LyqRKTNvkNIhw+XUiWOya8sGaT3fEnV6IgYSuPvRpwI9g/i8/dJzpm8qPAdBiocXBFKaAO0spW8PhYMABBJAgH4vAVAR6ToBFFjXkSLQn8D8W5fJ+CnTTe+KcZOkd5++svbDt/2jdet68JBhMnDwEDNt7ZlqOVNd1S05JIIABCCQrQQK+hfJ8FHjzOq3NDfKl0cPZisK6g0BCEAAAmlAAAU2DW5SuhexbOgInyoMHzXW5zqei3m33CWjxk40RWxe9zEKbDwwSQsBCGQlgWmz5sns+YvNuh8/vB8FNiufAioNAQhAIH0IsAY2fe5V2pbU/2v+iWOH0rYuFBwCEIBAxhHIycm4KlEhCEAAAhDIXAKMwGbuvY2qZudqz8jhfbul6vgRaWlukpycHqLTyYYMGyGTps6ISkakSJ+ufEuqT34pOhJ7svKIHNy7I1KSlA6fMXOmWb5tW7emdDkpHATSmQDtLJ3vHmWHgDcE6De84U6uqUkgk9sDCmxqPnMJL1VHR4ds/my17N+5Va5cueKTX92ZC1J3pkb2bNvs49/di7a2i7J760bz110ZqZJu5KhRsvjW28zi1NXVSeXx46lSNMoBgYwhQDvLmFtJRSCQNAL0G0lDTUZpQCDT2wMKbBo8hPEUMZQV4aEjKuTkl8ckt2eO3DwlV24c10OGD+icUX6i7rJsPHRZVu/pkPYOX+U2nrLEm3bAoFLJ7ZUnZ2tOyeXLHfGKizl9SckAuefe+6VHj05Oev7C88/JuXN1MctKdoJQz4FlnThSuFvl1fs3cHCZXLxwQerrznRb7ABDRi99Fk6fko729pjl9OnbT/IL+osa/nK6QWXl0trSbM5GcPpHOi8eMNiMEk+dIuWRLeG0s/jvdI8ePWVg6RDp6Gg3P0Z2V6Jb7TW/oNAsgs7yice5VR7aazx3ITXTpnO/kZpEoy9VpPeHSOHR5xQ+ZrzvBSq9eMAg09Bod98tnCX0sp/JhvaAAut82rLoXJXXkvwc+eFdvWTkIN+l0GPLeoj+FkzsIf/63iU51xKbEvvI038mBYVFIWmu/ehtObB7W8hwZ0D/4gGy6I77pHz4KFGlQ52+lH155KCsX/1+wOixM62b53369JEHHnpI9Gg5y0+V2AuGQobrIjDzxoUy88ZFpseJ44dl19YNMnfRnVJufDixPgBcaD1vfEQ5Kms+eFMa68N/BNAX8qmz5sq1M2+UogEDJTe3lylbP2Q0NzXKoT3b5fNPPxQd7fd3I8dMkCV3P2J679u1RYpLBsoowxq2KsB1Z2tkzYo3JM+wjD1n0R2iH0l0RkKVUeYVr/8urCKrdRxRMV5U6S3oX2zKb26sNz+wfHnsoGzd+Kl/UbiOQMBqU7SzCKCuBvu3s60b15jP8cgx46Vnz84/79rOak5Wyicr3oz6o9HQkaPjaq9avGtm3CDXXjdHdBu1vvkFZon141BjwzlzK7Xd2z6/WovAg3+94u0/NAfaayDnTPGh38iUOxlbPeJ5L3DmlF/YX2423jO13+vbr7Ovunz5svkesOGTFTLF6MtGjek0Fqp9rP5CuVToZ7KlPaDAhnoKM9xfR16DKa/Oaqtiq3H+4bVLMY3E9i8ukX75nV/cnfKs8155va3TsEftTJY9+JT98mNF1hezivGTzRGGhgiKj5UmnqMqXMvvvU/0i5a/Uz8N++PLfzBGhS/7B2ftdV/j/utaanX6RXOpcR/7XX2JtaDoB4kxE64xPk5UyFsv/adUV1VaQT7Hvv3y5Z7HvmGsoR7p468X+gdMX5Cvm3uzjDO2anr9hV8aL+lnfeLl5ubaZZl4zQwpNOJbbsCgMplrWLLubXyYsL6W5hgGbYZXjJObbr9X3nv1t1ZUn+PNd94v02bP8/HTC1Vk9afPZ1HJIFn9/msBcfAIToB2FpxLOF9nOysyPswsf+Rp+1m30mk7GzV2kjz89RHm8xzJiJ5ucxZPe83r3UeWPfSUjBg93iqCfVRFVn9qD2GC0RbfeeU5absY+PHPWa94+w/NnPZq34KMO6HfyLhbGlWF4n0vsDLRrRiXP2r0m36DLvpcaR+mM1majI9u1vuM9m+hXCr0M9nUHnyH3kLdFfwzjsCiyT0CRl6DVVKVWI0bi+to7zCnderUTuvnv842GnnzFy/zUV7PG9PPKo39CXVE7+KFVlMRcXNLnlBl0jWvo0ZVhAo2w6x1sSEjZXHAkGEjTeX1ovGiqveu8sgB0XtpOf1DtGDJ3dZlwPH2ex/zUV71Q0Ht6WrRF/EWY/TVcqrILl72kHUZ9KjKq+a/Z/tme7RWX6bzC4oMv03ypcNCtirXOmXR392y9EEf5VUNoR00RoD1d+7saTu6KrgaFxcdAdpZdJxCxdJZKvqSpQphlWEsT59zZ/vQdjZ/8dJQyW1/q722nm+WYwf3Gkb+dpqjplaESO1V27JTeW2/dMmcqq/T9dsvtVlizDgLjD3CIzmrPN3tP2ivkQindzj9Rnrfv+6W3q33At2K0am8nm/xfc/UwZhgH8/9y50q/Uw2tQdGYP2fwgy7ttY4WtV66/e/MaZNnpa5E3xv/c7Ky/LsJ5fMaF9f1EumjuxSWjXuR7uiX3P66//1/1rZ2ccnv/uXousTonXjJk81pw1b8Q8Zlos/eucVU3FVP/0qf+f9T0hp+XArSsKOH65cIfpLZ+f/HPjXJVK4f/xYr2sMK9Q6JdcaHdVRntuWPypjJl5jiho6YrQMM/YH1qm7TqfKpU4Bttzxw/vkw7f+YE/tVQVz0R33mtMVNY5+0Bg2coz5Am+lcR71pfz13z1jeunOIZOnzTbP1TK2ylX3nR/9d3O6ek9j5HaQ8fXVOTKs5Z4y/Xoznv63Y/NnxhTot3zWZOvI7YwbFphxNO66Ve/az62dkJMAArSzACQxe5ypOSkrXnvB7OM1sY4W3Gp81BlvzE5Qp+1Jz/VjSzh36sRxY7T2eWlubDCjaTu7/Z5HZdzkaeZ1qPaqyqazfehHplXv/tFu9zpKvNj4qGMpuDo1Tz8cOdtYsHJ1t/+gvQajmVl+mdBvpPsdifT+ECk81vq79V6gs/xGje2cGqxlOHpwj6x88yXRZRfqon3PTKV+JpvaQ5eWYt4u/st0AtYLydAS333/frOmc62rrnfVc6fzj+sMS9S5TuuwXJOxrlCVCx11tZwqQvpipOthcalNQEfhnS+xWlq9lx+987K0nm+xCz+otNw+t05KBg42RpGazBdpHcHRjxhOQzA6ovPxu6/6rKEN91Gj1rCubblTXx6zTqX6RNe5Gm+wnP+0Z/1j17NnTzNY18+ufv91H+VVA9Z88IZtOEfjOv9AWnI5QsBtAmpZ/mOjT9QPlJbT0diP3n7ZmAJXb3nJ4LKh9nmwE22vq9971VZeNY62M23DkdqrfoTSKWzqdCTj/de6PlqpX8O5WsPvBXsGhsbVNOFcPP0H7TUcWcIgkJ4E3HovKB3SNQCifdtHb79iK69KJtr3TPoZb54j32E4b8pArgkkEMr62yXDunCfXr5KbKhiaNxkOzXeZDn9Oh/MOM/pUyfMFyJdx4gLTyDUc2B9GY0UHl56+NCG+lo5U10VEEn/YOiU277GV1B1RUHWGO/buUX0F86pISd9abeemWByrPSXjZd8y+kLv+Wc5844Vrh1VOvdltNRqlDuVNVxe8aBponWaFkoefinB4FI7ShSeDy1VOUw2Eim9p3VhhGnwqJOQ2NWOwmVl8rRkVx/p6MS+tFGZzioC9bO1Aia5dRQoCqx/k7b/Unjg9G4SVPNoJKrFrz941nX8fQftFeLIkcIJI5ApH4tUnisJXPrvaDYMAhpubNGnxesv4rmPZN+xqKY3CMjsMnlnTK5nazzVUq/dlMv0yqxWibWc6fzj+sMS9R57959bdFq2TWUc67xChUHf28JhLtHzj8YapCpu865tk4kug8z3cmrf3HXH7xwz6UzzJmmO3mSBgLREGhp6pzuGyyu83kMZ4RE07Y0d60r95fValgRtlyw9mpZ8NQ4zY5RXyuNdXSG9bu6xY4V5n+Mp/9wtj0nA/88nGHONP7xuIYABNKHQKT3AmdfGK7fC9cHKQ1nn+HsS/xJOcOcafzjcR0dAUZgo+OUcbHWHeiQiUO7vl/omtcffzW4dWCN66ULZ903XJhbZV5y2x0yY+bMsOK2bd2a9utkw1YwjkA37pGuKdX1d2rhV43I5PgpqT2uTuuNo5gxJ73xptvl+gVLgqZTS8a42AjQzmLj5R87XDsLFxaLHP+44a47wuzVHS7MX2YsZfdP67ymvTppZM45/Ubm3MtYa+Lme0G4fiZcmH+Zve5nsqk9oMD6P31Zcv2ZoZTeck1PqRjcpcQGq/qxM5dF42azW/XRSikZUBLSEvHx48dE4+DcJ6DGEe57/Num8Rn3pccv0VrvF78kJNDOeAYSTYD2mmjCyZdPv5F85l7nyHtB6DuQTe0BBTb0c5CSIR27PhOpOiRXWoxpXleMfUcLiqXHsHGSM26m5PTpF1Bma42jM2DD6pWyf9c2+Zd3LsmPluXJqMHBR4uOn7lixsn27U3169tbb7wuT3z1qYC9YM+dqzPDYvlC57wXyToP9hw4844U7oybzHO1WKoWBy2nU3COG9uDOKcyatiocZMiGqexZLh1PPnlUTlZeTSiON1mBxeZAO0sMiNidJ8A7bX77FI5ZSb0G6nMN5qyRXp/iBQeTR7OOIl4L9BdB0K5cGH+abzuZ7KpPYS+Y/53heuUIHBl93rfctSfkcvGTw5skR7X3yE9RnRtOeIbsevq+gW3GFZbz4kaofn7Vy/K/Ik95embfde9/nr1Jflsf4dc9l0q2yUkiWfhpmOGC3OziBcuXJBXX3nFVGL79OncyNry0yPOfQK6dUfF+Mm24N3bPjctqtoejhM1dx/Juqojuiunus/m559+6IoshHQSsNqUfiyincX2VITrC8OFxZZL9LHD5RkuLPocYotJe42NVzrFpt9Ip7sVX1ndfC8471jTX1jYaeQuWOmc+8QGC3f6pUI/ky3tAQXW+eSlwfnwijHGnpfXy6Cyzi1Hztackt3bNsmJY0fk8vq3jBos91FiQ1l/s6qqCuqn+zoCFFj189I5F9/nF/YPWRTdZDpZTkdb33zjNXno4UfNLPVc/dLBhXoOrC+jkcK9qKPu6drLUGLVXblyxdhzdV3IYuTm+n6ACRkxzgCnoYf8wqI4pZE8GAHaWTAqkf3CGUPKL+jqQ519a2SpscW40Nq1LVahsV49lHO+EDq3RwsVv7v+tNfukku/dOncb6Qfbd8SR3p/iBTuKy38lZvvBQ3GdoyW0+33Bhpb+dU6ttHTsDETphgW17uMN1rxncdU7GeyoT2gwDqfwhQ/nzlnoUybPcenlEOGjxT97di8QbZu+FQub1ohOYO79rbyiZxGF431XYphaVnXnrDOKminUuQwg+4MS9R55fHj9npXPccljoDTDpLu91t7ujpkZgNLh4QMczNA9469ZsYNpsjSIaH307xh4RIpubqlSLUx02H7JmPqPy5qArSzqFHZEYuN/rDY2JKmvi5wyrpzX21n32ondunEOV1eXwh16p3u4+p06udcFqBbaSXK0V4TRTY15dJvpOZ9cbNUbr4X6FZf2j9pn5Tbq5fcce9XzP3pa05+aRZ5tDED7OY775dIM0ZStZ/J9PaAAutmy0qgLB159VdendlpmO61qSOxVw5ucQal5bnu62k5VQQWLLlb1n74tuUleXm9ZdEd99kjdHZAEk7U4jAu8QR0ivsVY513Tk4P0RHW2fNvCTpld8ndjxh7XJYkvkBGDseP7LfLVDZ0pFw392bZsn61T94TrpkhaonQ+qPn/MrrE5GLsARoZ2HxBATq1Lqb77pf3vvj8+Ic1Zy/eKk492d19q0BQuL00H1odbaEPvv6gfHWZQ/J6vdes/fx1jLeYpTROaKheyYnytFeE0U2deXSb6TuvXGjZG6+F9SeqZZ9u7bYH6V1ZuMjT/+ptJ4/r9O+JNysFmddUrmfyeT2gALrfApT+FynDUdyGsecSnzycKSoCQu/9e6H7Y3unZk4p5PNMV7uZxkv/k53rva0vPXSr20v3aj6ujmLZMDgMtNPz0dUjJOzV6d3DB0x2uclyE7IScYQuNB63vgoc1J0JEedKoXjJk01nvHDxijTWembXyDjp0wzXs47n5FkVFz3gzt2cJ+MNqYVqVtw6zKpMAxI6ccjVbL1D6CuxbWUV1Ukdmz2W7eejIKSR1YSGDl6vHzl238hJ48bS0qMF7BBxswEq/0oEB0h1b41Ue7Lowfl8L6d5pZXmsekqbNEp/zVnqkxs9T+3Pm34JARV9MkytFeE0UWuRDwhoDb7wUbPlkhJQMHi75TqtMP5v2MdwvLqZKrf8etcMvfeaSfcdJI3jkKbPJYx5VTNFMk7TgtXRvaW2sc/TMPtSbBivef3+s0VGRdf+MX0Rkq0rVWalAnnAu2ptV/e4PLxh6C6z5+T+68/wlzaofK02lwzqlwbRcvSMO5Wh+/cPlmc1io58BiEincipfs4+r3X5P7n/iu9MrLM5XCQYZyqD+n0z8ep04cs1+anWGJOH/31edl6YNPiU4vUqcv6Przd5fa2ozpSK/I+ZYm/yCuM5RApHYUKTweLNoGdApxf2M2Qv9pswJE6VS59avfF+1bE+nWrHzT/PBofVjSvZv15+/qztbImg/e8Pd2/Zr26jpSBELAh0Ckfi1SuI+wKC7cfC/Q94dXfvN/jA/kt8kI4wOgOTvEsA2j75eVRw/IprWr5M4HnohYKvqZiIhcj4AC6zpS7wXmGF/eU8B4cNwgjhzYLa//7hljDcJ9AUpLnfFF/7NV7xrTqufFnQ8CEkvgckfoF+YOR5iuc/V3OiXxtRf+XebefKf5xyVY+AbjpXzCtTPtIH857X5r8KyI7e2XrNOQx2BpVRF45+XfyE233yPDRo0xv9726NHTlqHh+uxu3bhGtPw4CCSDwEXDGvqK138n841ZAf4WubW/1Je+E8cjz86Jp71qPZsbG+TFX/3UnDExZdrsgGl455ubZM+OzbJxzQcB62ODcYq3PLTXYFTxg0D6EnDjvcC/9hvXrDT6pJX+3lFf089Ejcq1iDmLFi8xdZ2mq0Zz+vbt65pwLwVZL565YfZ28rJ8seZ9x32PmsaawqWrPlFpvMC8FC5KyDD/EVf/iNGOwPqnc+u6sKhYyodXmNM0dbqxroPIRJdpz62b90gtTg82DCfpetfW8y1yzhjBSeR6vmjLrpuqjxg9zng288wZAWrFsK3tYrTJiecBgUxpZ/OM9a2z591iEjx+eL+88eKvzHM1kqTrXnVPQDUw0thwzgPKnVma7fbqrIkzNSc9n5FAe/XsUUj7jDOl30j7G+GoQDLeCx7/zn81lmN07vyhH96iUXSzoZ+x2kNzc7PjjiTvlBHY5LGOKyfdKketDYdzGidTXVNDvTQ1bMvU6lGvKAjoVFx9SU81p+tjDu3dmWrFojxZTECtaFqWNL3GYLZbw/hZqjjaa6rcCcoBgfgJJPq9QJetDRzctcuBLluLxtHPREMpvjgosPHxS1pqNc6kW+WEskSsYRrHLef1iKtb9UAOBCAAAQhAAAIQgAAEghHQ2SpqcM7HGZbUywwDkmoEzzLKqEueolmG4SOHi4QRQIFNGFr3Bes+r2rtVK0Nq7VTdWdrTomOvLqpvLpfciRCAAIQgAAEIAABCEAgtQiMnnCNsU3f4oiF2rH5M3ONf8SIREgKARTYpGB2LxNVVBOhrDLi6t49QhIEIAABCEAAAhCAQPoTuGTYtNi+eZ1sWL0i/SuTQTVAgc2gm0lVIAABCEAgewicOHZIrhiGmtRZe2RnT+2pKQQgAIH4CegWZJvWfhQg6NKlNnPv7Oqq46Lb7eBSiwAKbGrdD0oDAQhAAAIQiIpA5ZEDoj8cBCAAAQh0j8DJyqOiP1x6EeiRXsWltBCAAAQgAAEIQAACEIAABCCQrQRQYLP1zlNvCEAAAhCAAAQgAAEIQAACaUYABTbNbhjFhQAEIAABCEAAAhCAAAQgkK0EUGCz9c5TbwhAAAIQgAAEIAABCEAAAmlGAAU2zW4YxYUABCAAAQhAAAIQgAAEIJCtBDLeCnF7e3u23lvqncYEeG7T+OZR9LQhQDtLm1tFQSGQMgToN1LmVlCQLCbACGwW33yqDgEIQAACEIAABCAAAQhAIJ0IBIzAZtqXpfYrOel0PygrBCAAAQhAAAIQgAAEIAABCIQgwAhsCDB4QwACEIAABCAAAQhAAAIQgEBqEQgYgc3NDfBKrRJHWRprJPlCS1OUKYgGAe8JFBQUmIVobm72vjCUAAIZSoB2lqE3lmpBIIEE6DcSCBfRaUfAag9eFZwRWK/Iky8EIAABCEAAAhCAAAQgAAEIxEQABTYmXESGAAQgAAEIQAACEIAABCAAAa8IoMB6RZ58IQABCEAAAhCAAAQgAAEIQCAmAiiwMeEiMgQgAAEIQAACEIAABCAAAQh4RQAF1ivy5AsBCEAAAhCAAAQgAAEIQAACMRFAgY0JF5EhAAEIQAACEIAABCAAAQhAwCsCKLBekSdfCEAAAhCAAAQgAAEIQAACEIiJAApsTLiIDAEIQAACEIAABCAAAQhAAAJeEUCB9Yo8+UIAAhCAAAQgAAEIQAACEIBATARQYGPCRWQIQAACEIAABCAAAQhAAAIQ8IoACqxX5MkXAhCAAAQgAAEIQAACEIAABGIigAIbEy4iQwACEIAABCAAAQhAAAIQgIBXBFBgvSJPvhCAAAQgAAEIQAACEIAABCAQEwEU2JhwERkCEIAABCAAAQhAAAIQgAAEvCKAAusVefKFAAQgAAEIQAACEIAABCAAgZgIoMDGhIvIEIAABCAAAQhAAAIQgAAEIOAVgdxkZjxt9nzpl19oZ1lfd0b27fzCvuYEAhCAAAQgAAEIQAACEIAABCAQikBSFNj8wiK57Z5HZeTo8T7lqDx6EAXWhwgXEIAABCAAAQhAAAIQgAAEIBCKQMIV2PFTpsuCW5dJYVFJqDLgD4G0JjB4yFDp16/ArkNDfZ3U1521rzmBAAQyh0B32nuPnj1l+KgxkmP8i8ZdvHhBqqsqo4kq3SmPv2CdGTVsZIUMHTnaDDpZeVSqjN/5lmb/qGGvkRMWjzkDLRM5h681oRCAQHcJ5OTkGH38MBlcWi6DysrlypXLcvZ0tZypPilnak5GLdYtOVFnmISICVVgF962XKZeN1dye/VKQlXIAgLJJaAdwi133ifzF98lem65Tz98Rz5+/3XrkiMEIJABBOJp74NKh8jXf/DXUVOoqjwi//Fv/xg2fjzlsQQXDxgkDz/1PSkfPsry8jmeOnFcXn7uFxE/yCEn/AfLTOXj87BwAQEIuEqg1FBclz30pIyoGBdU7v7d2+T911+UhnN1QcMtT7fkWPJS5dizYvSYv9PCtF1oNcvUyyVlc/Gyh2X67HmiX57VdXS0y+6tn0tb2wUpKh5g+ulIVaLWwF6+fNnMo62tzTzyHwTcJFDYv1i+8s3/IlNnzfFRXjWPyiMH5dihfd3KLi8vz0zHc9stfCSCQFQEYm1n8bb3/ML+MnvezVGVTSM1NZyTrRvXhowfb3lU8LCRY+Sp7/1IBgwqDZvP1OvmSOWxQ9JYfy5oPORkJ5+gD0OGe8bab2Q4DqqXQALjJ0+Vr/3gr6S4ZGDIXPTD6MwbFsjubZvkQuv5oPHckhNMuNftIWEK7LXGH72SgYPNOrc0N8qnK9+STWs/lMnTZqPABnsS8EsbAtohPPGdPzencwQrNApsMCr4QSB1CMTyh9eN9t6jRw/Rn46sBvvVnDohQx2joKdPVcnOLRuDAnOjPDrV9zt/8bfSt18/M4+LxgfstR+9K2tXvSc7vtggtWdqpHzYSHP2VC/jo9q1M2+QLRvWyKVLvh+EkdNLspFP0AczCzxj6TeyAAdVTBCBfvkF8sS3/1x69+lr5qD982dG37xxzYeyZ8cXprJaPnykOXiSm9tLBpcNNftt/+K4JcdfrnXtdXtI6BRireTJL4/Jh2//Qeprz1h15giBtCWgL3L3P/4te9RVO5a3Xn7OnII3/5Y707ZeFBwCEAgk4FZ7b2pskBVvvBSYgeGjs5Qee/pP7LC6s6flzZeeta+dJ26VZ+YN8yWvd29TdOv5Fnnmp//gM034yIE9xgvRevn2n/+NuW6zV688ue7GhaaC6ywPcrKTj/MZ4BwCEHCXwJybbpMCw/itupbmJnnmJ38vjcasHMvt27lFjhqz/B766ndNrzETphgzakabdgusOHp0S45TZiqdJ2wf2Ib6Wtm+eZ288pufobym0h2nLHER0LVM1npXXR/2S6Nj2bN9c1wy3UysX9z6G1P0c3IS1rTdLC6yIJDSBBLd3rWd3v/4N2XcpKkmh0ZjWc3z//5jaW5qCMrFrfKUlg+z5W/4ZKWP8moF6LqqDcYXf8upsSh/h5zs5OP/HHANAQi4R0CVUcuteu81H+XV8tf3Tp3tZzkdhfV3bsnxl5sq1wkbgV2z4o1UqSPlgIDrBD5fu0pWvvWyubbbdeExCFRlesI102XuottlyNCR9qhKe3u7nDNGcr4wpv1tXvexWGvCYxBNVAhA4CqBRLX3pQ88LtdMv97MpaWp0VBefxLRIIdGjrc8vfI6R19Vln5sDuWc616daaz4Tj/kdDHNdD5W/ThCAALuEygfUWELrTxywD73Pzl54piMHNO5PWkwBdYtOf75psp1whTYVKkg5YCAmwTUdPkffvNzw/jYFjfFdkuWWvd+5Gs/MEZvrg1In5uba26vced9j8msOTfJr3/2P0Mu8g9IjAcEIGASSGR7X7z0AZk1d5GZjxrgeP6XPzHWnlaHJe9WeXQbBsuNHj856PopDXf2LWdrTllJ7CNyuvrebOJjPwCcQAACrhP43TM/lZ7G2lZ1uqQklCssKraDrsgV+9w6cUuOJS/VjswzTLU7QnlSmoCaLU8F5VUhLXvwSZ8XTLX0XXn0oDml2dnp6dS/ux/6akpzpXAQSEUCiWrvOmNigbH9ljqdHfHCM/8qpw1DTpGcW+XZvukzYz/BzheeabPmmh+5nHnrzA5dP6VrbtVpGXVJkL9DTnby8X8OuIYABNwjcOL4ETl+eL/5s/ppf+naR48ZP8X2PhfEzpBbcuxMUuwkYVaIQ9UTK8ShyOCfzgR0Ef3I0ePMKiTDCrGuc73nka/b63H15fLZn/2TaSlUrdRt+uxjEWNr2oqxE80yqRKrVk3VYAsOAtlOIF7rifG293sfe9owjlRg3gZ9ERlvrIHVqWAN52qDrneKdL9iLY/2A7pzdcW4iWYfMmHKdBk6YrSxpuqAWa5Hvv4De3RY81717quyf/f2gGIgpxNJtvEJeBCyxCPefiNLMFHNJBDQPl9n16lTJff913/frVl28cjxuj0whTgJDxpZQMBtAiWGMalztZ1TS1pbWuS9137ns8WFdmhrPnhLJl97nViGVsqGDg87HcXtMiIPAhCIjoBOBZtUNFMmXjPDsPT7rnz83uvRJYwj1ifG1nYdlztk0e3LpWfPXNHteX74N//DkJhjfxjTtfQfv/+arF/9QcickJOdfEI+EARAAAIJJaDLx+66/3E7j8P7dwc1xGdHCHHilpwQ4hPujQKbcMRkAAH3CRw3Rkp+9j//NqxgVWJ1kb+lwA4YWBo2PoEQgEByCOza9rm5TULPHj2lZNBgcw9YNYiko7ELb11mTCeuMjenT3RpdO/XDkNJvW35w2ZW/tbLIymvVvmQY5EIfsxUPsFriy8EIJBIArp8bODgMjML/cj4wZt/6FZ2bsnpVuYuJEKBdQEiIiCQqgTaLl6wi5bTgyXvNgxOIOAhgU9WvOmTe2H/YnngiW/JqKtT/u+491HZv2ubtLdf8onn5oUqyzfdttz43W2L1a1zDG9zKy71XLLsIcnL6yNrjNHacGuxkJN9fOyHhhMIQCBpBBYuWSbTZ8+z81v9/uty9nSggT07QogTt+SEEJ8UbxTYpGAmEwgkhsCka2fKtNlzZeCgMuOls8SY/acr27pcr6uW7Lp8OIMABFKNQFNjvbz6u1/JD/7676V37z7m6KyuW9e9phPh1Er5w099X8ZPmWaKv9R20ViG8KJhqGm9eX3dnIWiSnSu0X/oFOOhw0fJy8/93FCo232Kg5zs5OPzEHABAQgkhcB1Ny6UW+68z85L7ZqsW73Cvo72xC050eaXqHgYcUoUWeRmFYFYjaiEghPtonhds/bEt38oC25dKoNKyyW/oNB82dQXSufPOep69NA+00pxqLzxh0C2EIi2nYXi4VZ7d8rX2RKjx02SkoGDTe8vjx6SmigsE2vkWMtz/fxb5IaFt5r56Nf753/xYzlycK9xrZaJr5iK894dW0wjT9q36HS18y3NUlV51Exj/YeciWbfm218rPufbcd4+41s40V93SMwZfpsUeN/OnNG3bFD++WV535hzIy5HFMmbsnRTL1uD8wpjOnWExkCqUFgyd0PmS+tVmlqz9SIGlN554+/9fmpKXYcBCCQHgScWyH0d+zx53bp5918py3ykxVvGVPQuvaFtQJUsX3zpWetS3GmsTydfsjpYprpfKz6cYQABBJPQD9Q3v/4Nw3ltVNlO/nlMXnp2Z+Jbp0Yi3NLTix5JjIuU4gTSRfZEEgAAf0CN+P6rjUQqrj6r6mzsh1cVm6vq7P8OEIAAskjoO118rRZ0sNYg67rSHdv2xQyc591pn7LAUImijFAt+9Rq8fqNL8De3eElKAjrs1NDeaUZk2jaXUkVh1yxByRzjY+IR8WAiAAAdcJDB81Rh41tjXTWXfqdL/wF575qVy80BpTXm7JiSnTBEdGgU0wYMRDwG0Cg4cMk959+ppidfrIlg1rQmaRZ6ynw0EAAt4R6GFYGn7wye/YU790n2hd8xrMFQ8YaHtfaD1vn7t5UlBYZIu7bGyjo+tfwzldB2s5TWspsMjppJJtfKxngSMEIJBYAqXGu97j3/qhqIV6dTrT7vl//xfR/bdjcW7JiSXPZMRNmAJ72z2PGRuzTwioQ17vzhuhAeXDRsk3//z/8YlzcM92Y//KN3z8uIAABLoIOAdmLrVdkubGhq5Av7NhI0f7+XAJAQgkk4BO89I2ao16jpt0rWz9fG1AEXREc/iosbZ/w7la+9zNk4b6OlucftWvGDfRXE9lezpONKxP3362jzOt8xw5nYicTJznmcTHfhg4gQAEEkagZMAgeeI7f2H3v/V1Z+W5n/+ztDQ3xZSnW3JiyjRJkRO2Blb/6KnxB/9fr155dtV65eUFhDNiZOPhBAJBCdQa69UuX+5cuK8fhKbNmhs03s133CuDy4YGDcMTAhBIHoF9u7bamd267AEZMnSEfa0nann47oefsl9WLhjTw44e3OcTx60LnXrmtG58/1e+JeWGlWF/p34aZjlN45y2hpzs5GM9DxwhAIHEECjsXyRPfu9Hokd1jQ3n5DnD0F6omTuhSuGWnFDyvfbPWbR4iZodlKarX2X79u2cmhhvwZY+9DXRL82xul1bN8qqd16JNVlAfMvcf3Nz53qdgAh4QKAbBGZcP19uWLA4IGVhUYn5MUYDWpoaAzqa1ca+jweM2QWRXEFBgRkl0nP7pPFlThfkq9N1bJVHD8qB3dvN/cDyC/rLdXNuMkZzxpjh1n+r3ntN1n70rnXJEQJZSyDaduZWey82vqY//Sf/zR6F1Ta7f/c2c31pT2OK8Vjjb2V/ow+x3Lt/fEE2r19tXdpHt8ozduI18tg3/tReV6XlOXJgj5ypOWnmpR++tH+xLF7qKPLv//N/y+H9u+2y6AlyOi2CZhsfn4cgiy6i7TeyCAlVTQCB2fNulqUPPGFLvnSpTXTgIpxrMmb5vPgf/+YTxS05PkIdF163h4QpsI46enKKAusJ9ozPVLetWXzX/THX843f/9rYY3FdxHTRdghFJQPkuz/6O+lzdS1sMMFq0fSgYaDlhgWd22WgwAajhF82Eoi2nbnZ3nV7nK8aX9WLS7rWufqz1zXtb7/yW9m68VP/IPPazfKMqBgnjz79J6YxpqCZXfU839Ikf3j25yG34EJOdvIJ98xkali0/Uam1p96JYeAv+IZTa5qy+Af/68/9YnqlhwfoY4Lr9tD0veBddQ9oafWFMu2traE5oPw7CIwdESFOeoQa63V8uiZ6s7RjXBpo91XS6fv7d76uRQYU0x0tMQaKVHZOppyaN8uUaV54OAhMurqWvSDe3fKieNHwmVPGASygkC07czN9q5Gmfbt2mIaYNOlNH375dvtVpVE3Yf1o3dflV1Guw7l3CxPozHras/2zdI3P196GvtHO8ujinTtmWqjH9ktr77wq7D70SInO/mEekYz2T/afiOTGVC3xBPQfn785GkxZXS5oyNghp1bckIVxOv2wAhsqDuDPwQ8INCdL1pqBXPA4FJzCqJaCK2vqzUshca20N+DqpIlBDwj0J125nZh1WjTIGObq5amJlNZdFt+rPLU0mVZ+TAzWc2pqojWiUPJR04oMp3+mconfK0zIzQV+o3MIEktMoGA1+0BBTYTniLqkDEEvO4QMgYkFYFAGAK0szBwCIIABIISoN8IigXPLCXgdXtImBXiLL2fVBsCEIAABCAAAQhAAAIQgAAEEkQABTZBYBELAQhAAAIQgAAEIAABCEAAAu4SQIF1lyfSIAABCEAAAhCAAAQgAAEIQCBBBFBgEwQWsRCAAAQgAAEIQAACEIAABCDgLgEUWHd5Ig0CEIAABCAAAQhAAAIQgAAEEkQABTZBYBELAQhAAAIQgAAEIAABCEAAAu4SQIF1lyfSIAABCEAAAhCAAAQgAAEIQCBBBFBgEwQWsRCAAAQgAAEIQAACEIAABCDgLgEUWHd5Ig0CEIAABCAAAQhAAAIQgAAEEkQABTZBYBELAQhAAAIQgAAEIAABCEAAAu4SQIF1lyfSIAABCEAAAhCAAAQgAAEIQCBBBFBgEwQWsRCAAAQgAAEIQAACEIAABCDgLgEUWHd5Ig0CEIAABCAAAQhAAAIQgAAEEkQABTZBYBELAQhAAAIQgAAEIAABCEAAAu4SQIF1lyfSIAABCEAAAhCAAAQgAAEIQCBBBHL95ba3t/t7cQ0BCEAAAhCAAAQgAAEIQAACEPCcQIAC63mJXC5AQUGByxIRB4HEE+C5TTxjcoAA7YxnAAIQiJUA/UasxIgPAfcJBCiwzc3N7ufioUQ6Gg/hkzUEIAABCEAAAhCAAAQgAAEXCQQosMXFxS6K906UNRU60xRy74iSczIIWB9ceG6TQZs8spUA7Sxb7zz1hkD3CdBvdJ8dKTOPgNUevKoZRpy8Ik++EIAABCAAAQhAAAIQgAAEIBATARTYmHARGQIQgAAEIAABCEAAAhCAAAS8IoAC6xV58oUABCAAAQhAAAIQgAAEIACBmAigwMaEi8gQgAAEIAABCEAAAhCAAAQg4BUBFFivyJMvBCAAAQhAAAIQgAAEIAABCMREAAU2JlxEhgAEIAABCEAAAhCAAAQgAAGvCKDAekWefCEAAQhAAAIQgAAEIAABCEAgJgIosDHhIjIEIAABCEAAAhCAAAQgAAEIeEUABdYr8uQLAQhAAAIQgAAEIAABCEAAAjERQIGNCReRIQABCEAAAhCAAAQgAAEIQMArAiiwXpEnXwhAAAIQgAAEIAABCEAAAhCIiQAKbEy4iAwBCEAAAhCAAAQgAAEIQAACXhFAgfWKPPlCAAIQgAAEIAABCEAAAhCAQEwEUGBjwkVkCEAAAhCAAAQgAAEIQAACEPCKAAqsV+TJFwIQgAAEIAABCEAAAhCAAARiIoACGxMuIkMAAhCAAAQgAAEIQAACEICAVwRyk5FxXu8+MmX69TJgUJkUFhXLlStXpKmhXmrPnJIdm9clowjkAQEIQAACEIAABCAAAQhAAAJpTiDhCuz0GxbKdXNuksL+xUFRTZs9Xz5f+6Ec2LU1aDieEIAABCAAAQhAAAIQgAAEIAABJZBQBXbhbctlhqHA5uTkhKQ9YFCp3Lb8EenRo6fs27E5ZDwCIJBqBPS5HjxkmAwuLZdBZeXGzILLcvZ0tZypPilnak4mtLh5vXtL+bBRZh4tzY1mvt3J0C053cmbNBBINwL98gtl2MgKGTpytFn0k5VHpcr4nW9pjqkqbsnxz3TYyDGSm9v5Z72hvk7q6876Rwm4drMfc6temSonAD4eEIBA2hPQPnTQoEFh69HS0iLnz58PG8ctOWEzyaDAhCmwI8dOlGtnzrGV146Odjlx7LCcqztj+PWQsvLhUjZ0hBnes2eu3LhwCQpsBj1YmV6VUkNxXfbQkzKiYlzQqu7fvU3ef/1FaThXFzQ8Xs+p182RZQ8+aYrZ8cUGef3F/+iWSLfkdCtzEkEgTQgUDxgkDz/1PSkf3vnRyL/Yp04cl5ef+0VEhdEtOf756/Xo8ZPlq9/9r3bQb3/5k4jlcasfc6temSrHvimcQAACGUegtLRUbrrpprD12rVrl+zduzdsHLfkhM0kgwJ7Vowe83dan7YLrWa1evXqZR7j/e+WpQ8aa15LTTGXLrXJyjf/IOs+fleOH94vxw/tk93bPpf8wv6mIquR+vTtJx0dHXLyy6PxZm2mv3z5snlsa2tzRR5CIGARGD95qnztB38lxSUDLa+A46DSITLzhgXGc75JLrSG/+rmTJyXl2deRnpuhxkjQOMnTzPj1pw6Ifu6OQXfLTnOOnAOgVQnEG0703roqOZT3/uR/fcsWN10iYx+DKo8dkga688Fi+KanGDCddT1K9/8M+mXX2AG79m+WT77+P1gUW0/t/qxVOOTauWxgXOS9gRi6TfSvrJUIGoCBQUFMmpU8I+blpDTp0/L2bPhZ8S4JcfKM9FHr9tDwkZgi4q7Xu4P79slB/dsC2D58bt/lApjpLawqMQMKxnYqfAGRMQDAilCQF8Qlz/yNWPKe6cB74vGh58Na1ZKddWXkmP4jZ0wxVjzrdPme0jvPn3l7oe+KjoSgoMABNKPgE5l1VFNnWqvTtv7+k8+kBPHj5jX+gFo7qLbzQ+w2jdo3H/9h/8WMKXYLTlmpkH+m794qQwcPMQM0TKuePOlILG6vNzqx9yqV6bK6SLOGQQgkKkEdGrwwYMHA6o3ePBgKS4Obv8nILLh4ZacYLIz0S9hCmx+YaHNK9yoaqNhjdhSYK2jnZATCKQYgTk33SYFhUVmqVqam+SZn/y9NDZ0jbjs27lFjhozDB766nfNOGMMhVZfcnWdHA4CEEgvAjNvmG8rr63nW+SZn/6Dz7TcIwf2yI4v1su3//xvjNHPQunVK0+uu3GhrF31nk9F3ZLjI/TqhSqu8xffZQd9/P7rppV/2yPIiVv9mFv1ylQ5QdDjBQEIdIOAzg69dOlSN1ImPklTU5Ns2xY4SDdjxoyYFFi35Fg1TmVmVhnjOSZsH9hNa1cZ1oU/Mn9HD4ae9927Tx9H+a84zjmFQOoRUGXUcqvee81HebX8dfpe5ZGur3GDy4ZaQQk/qhEAnc6oL9PxOLfkxFMG0kLAawKl5cPsImz4ZKWP8moF6Dr3DWs+tC4Nw26B7d0tOXYmjpOlDzxuG27StbibPvvYERr81K1+zK16Zaqc4PTxhQAEoiUwbNgwWbJkiUyfPj3aJKZtnX79+ok1xTXqhBkWUZkpO2WYiS5hI7CbjK1xIrl8YySruKTLcpeOaOEgkMoEykdU2MWrPHLAPvc/OXnimIwcM970TrQCe/lyh6G0Fsktd91vGE67wXiZ7VzHrnstH9q/Sz4w1p/rtMJIzi05kfIhHALpQqBXXufUYS1vQ31tyGI7170601gJnH7xyLHkWUddd6vGm9SpFfR3/vhbc591KzzU0a1+zK16ZaqcUPzxhwAEwhNQpWvy5MlSUtK5xLChoSEggcaZOnWq6X/y5Ek5cuSIeT106FB7mVdra6ucOnVKduzYEXIEd8yYMTJhwgRTzvHjx0MaW9LyWGtdDxw4YOYXUKgU8tCBCOU3b948OXfunFmvqqqqFCphfEVJmAIbTbGmXz9fch1Go9TAEw4CqUzgd8/8VHpeVRDrzp4OWdTCoq51D1cksTML8nr3ka9+7y9FDUc5nZZBDUnpC+7zv/ixnKs94wwOOHdLToBgPCCQpgR0WyzLaTtSi9/B3LhJ19reZ2tO2efWiVtyLHl6VMOHt9/ziO31xYY1hhHEY/Z1uBO3+jG36pWpcsLdA8IgAIFAAv6KqxUj2PThPsYMzsKryxX79+9vWgLOz8+3kpjHvn37iiqo5eXlsmrVqqBb2fQ2bBxYcvQ8lIs2Xqj0yfa3jNlqvpmoyCZsCnGkGzXQ2DtTR4ssp/vVsQ+sRYNjqhJQ4y2mJW3jY8uVK8EVU/3qNWb8FLsKkRRHO2I3T6ZMm2Uqr7oX5Z4dX8jOLRt9pjqqteQ7730sonS35ETMiAgQSBMC2zd9ZrfzabPmyqw5vlslaFvX9aTW3zJ9Ydi+eV1A7dyS4xR867IHJb+gc6lAS1OjrHrnVWdw2HO3+jG36pWpcsLeBAIhAAGbgCquOt1VRwutUVcN1JHDdevWyfbt2+24wU5UQVXl9eLFi3LixAnRkVTde9VyqsjqmtRsclu3bpUtW7b4cLAU2UyYWuzZCOxtyx8xviB3fim5YvzR37rx02x6rqhrBhPQkZq+/a4+24aSe3j/7oTXVteZ//G3v7Stn+reyrctf0huWHCrmff4KdOiMibllpyEV5gMIJAEArVnamTNB2/JojvuMddVLTOsik+4Zoa888rz0rNnT7nn0a/LKMOSvuU+NtbFaxp/55YcS+7wUWNMY1HW9QdvvSwXolgmYMWP5hhNP+ZWvTJVTjSciQOBbCYQasS1trbWnPKq03+jddXV1bJx40axtiHU3SJUaR07dqwpQvPSkVY1lpQNTj+oHj58WI4ePWpOfdYp0NYItaXIpvPUYk8U2Hse+6aUlg+3n5+jh/bKzi8Cv1rbETiBQJoQ0Cnxd93/uF1aVV51dkEiXbthme+Nl561lVfNq6Oj3Vz7OmbCNfbU4iHDRoa1huyWnETWFdkQSDaBT1a+JR3GOvNFty83lNZcY//lqfLDv/kfRjFyTKVWy9Pe3i4fv/+arF/9QcjiuSVHX8p0ey4d/VWnVs93bvGd2vz9v/zv0r9kgC6MNS0nh1vuEKzAsfRjbtUrU+UE44sfBLKdQCjFVfdK3bNnj9TUBH4IDMeso6NDNm/ebCuvGtecEWOM3OqaWB2BVadTjbNFgTUrbPynHFSJPXbsmFRUVMikSZNE95xVl86KbNIV2Nvve1wqxk0ywel/Z6qr5O0/PGtfcwKBdCaw7MEnjf0Yy8wq6EutGlBKtKs++aU01tcFZKOdlm7zYa2NHRBhn2W35AQUBA8IpDmBtR+9Kx1Ge75t+cNmTXSfZ6eLpLxacd2Qo1OWrQ/A+qHqXcNwk7/rlZcnvY218eqcdib844W6jrUfc6NeWpZMlROKM/4QyEYCOio6fnynkUur/qdPnzYV1zNnwtvqsOL7H+vr60UNNvk7VWzr6upsS7yW4uYfLxuuddmbpciOHDnSNJJlrf21FFndzzbYlkCpyCepCuwtdz0oE43pV5bTl+73XnvBuuQIgbQmsHDJMpk+e55dh9XGfoxnT0c//cVOGONJw7nQ1lGdo799/Ywb+Gfjlhx/uVxDIJ0J6EjnTbctN35329XQrXN0ALR/sTHKabglyx4ytmzoI2uM0dpwa+PjlaPr2XUk2HKfrXo/6JRlK7w7x1j7sVTio/VNtfJ05x6QBgKZTED3J7WcThHet2+f6MhrPM653tVfjlOx1Rks2e70b5SuEa6srJQRI0bIxIkT7f1qnfcm1TklTYGdf+sy09CFNe1JjU588MbvpT6CZdRUB0j5IKAErrtxodxy5302DDWktG71Cvs6kSf6hTGU061xonVuyYk2P+JBINUJ5ObmysNPfV90Dbm6S20XjY+uLxqGmtab19fNWSh33PuouXWVKpZDh4+Sl5/7uTml2Ixw9T+35KjhJmvLGTUOt3bVu85s4j6PtR9zq16ZKifuG4IACGQ4gQEDBkhZWZnoNjnBLA1HW/1QHw41fbiwaOVnajy15WDpZelWx6R8irh+wRKZccNCybn65UOtpa586yXD5P/RdONFeSEQQGDK9Nmy7KEnbf9jh/bLm8aaVBwEIJDeBGbNXWQrrzqb4pmf/oNsMy0TXzZeii7LF+s/kV/+y9/LmZqTZkVV0dU0/s4tOUXGCKzlVq94Q3TduluuO/2YW/XKVDlu3RvkQCCTCOgaVEup1K1ppkyZIsuWGYNc115rzGTJy6SqpmRddBRatxa66667ZPbs2VJUVGSWU+9JOq0PTrgCO91QXK9fsNi02KiELrS2yEdvvyyVRw6k5I2lUBCIhcCYCVPk/se/aXzB6mxKug/jS8/+zDSiFIsc4kIAAqlHYN7Nd9qF+mTFW8aSgGr72jpRxdb5wcqZxorj9ItHjiVPj9fPu0WWP/xU0F+//M7tdZzxw513tx9zq16ZKiccc8IgkK0EdMrwypUrze1uLEVWp66qldylS5eaimy4/VizlVu89dbR1nHjxpmK66xZs2yLxHoPdOshvSd6b9LFJXQK8eTp18vcm+8wp1cpkIuGmX/dZuDowT3pwodyQiAkAd3K4tGv/8C0TKqRTp86IS8881PzOQ+ZKAEBuhbPDeeWHDfKggwIeE2gX36BFBYVm8XQP/AH9u4IWaSqyqPS3NQgBYVFZhpNqzON1Lklxz/z4RVjRX/xuu72Y27VK1PlxHtfSA+BTCagU4bXr19vjv7pCKxaJdaprJYiq0aedAuY/fv3m3u7JotFuDWy4cKSVb7u5KOKq4646lpXyxqzytG/a1VVVabxLL0f6eYSpsCOnTTVNHyRl9fbZNJmbC78yWRShJEAAB1HSURBVAdvysE94TcjTjeAlDc7CZQOGSaPf+uH9no03cfw+X//F2k937VxdrLIFBV3TSv0z9MZpm0wnHPG9Y/nDIskxz8t1xBIRwKqjFpO15Lr+tdwLje3yzCJprUUWLfkhMu7u2Hx9GNu1StT5XT3npAOAtlEIJQiq+viVeHSEUNLkb1w4UJC0DjlOhU8/8z69etne12M8D5lR/TwRBnqHrjK0Tmine6Kq4U0YQrs+CnTpXefzn2XNLPcXrkyf/FS82dl7n9su3hBnv/5P/l7cw2BlCJQMmCQPPGdv5A+fTs7M7X0+9zP/1lamr3ZHLts6HCzLBdazwdwGjmmy1R9pL0g3ZITUAg8IJCGBBocW1Pp/q8V4yaKrm8P5jTM6g803JnWeR6PHJX7xu//U/Kubo+j16HcY9/4Myns36WAB4sXbz/mVr0yVU4w5vhBAALBCYRSZHX0cMKECeba2E2bNgVPHKdvY2OjLUGNSmme/kYtVRnUrWYsF82IpW5laDndf7a7rrtyZs6cKRXGvq+WyxTF1apPwtfA2hn16Cn5BYVhf9aWBFYajhBINQL6Uvjk935kvxw2NpyT537xY2lqrPesqPqh6M77viI9jE7X6W5ceKsMGzna9tI9l8M5t+SEy4MwCKQLAV3ycurEcbu493/lW1JuWBn2d+qnYZbTNJrWcm7JUXk600PlR/p1tIc37uRGP+ZWvTJVjnX/OUIAAtETsBRZ/zWy0UuIPaYqsJbC2qdPH5k+fbqPZV6d2jxt2jTRMHUa16n0hsrRGUenSA8cGHq2XCgZ6h+vHFVcrTWuOm07GuU7XHlSJSxhI7CpUkHKAQE3CUy8dqboyIXl+vbLl0e+9n3rMuixqbFBXvyPfwsa5pbntFlzZIgxEntgzw65YvwbPmqsjB43yRZfVXlEjh0OPnpkRzJO3JLjlMk5BNKVwCrDZsNj3/hTc527rof91g//bzlyYI9tdXhw2VBRA0jWNgQdHe2iafydW3L85Xb32q1+zK16Zaqc7t4f0kEg2wlYiqxayNU1ss5RSLfZ6PY9e/fuNY1HqWyddqsjsTU1NWbfPmTIENtSr4bv3r07qi1/NH17e7thByjXHNVdvHix6H61bW1tKsZ21dXVsmvXLvva/yQeOaq47tmzJ2OUViebhCmw77/6W9EfDgKZTKBXrzwZMmxk2CoOHBx+7VzYxFEE6rTGwUOGSmn5cPPnn0TXrOrelfoVLpxzS064PAiDQDoROLx/t7E84Mfy6NN/YhpjUkV17MRrzJ9/Pc63NMkfnv25VB496B8kbskJEOySR3f7MbfqlalyXLo9iIFA1hKwFFnrI2GiQKj13dLSUvOneeh0YeeUYStfVTYPHIhuF5XW1lbZtm2bqMVfq/z5+fm29V9Lpiq14Vx35XzxxRcJVfzDlTkZYT0rRo/5O82o7eqUJ7UAlgnO+lrj/6UjE+pGHbwjMHREhYyfPC2mAlw2ppus/ejdqNJYe6BFem6d5ThycK+seP1FKTMUWOc0fFVYvzx2yLSMfKa6c59K/0K4JcdfLtcQSGUC0bYzrUOjsRZ2z/bN0td48ehpfEnXWRfWy4juBVt7ploO7dstr77wK6kxLJGHcm7JCSXf6T/b2GJHrfuq+3ztR7ZBKSuOs91bfpGOofoxt+qVqXIicSU8fQjE0m+kT63St6Q6SlpeXm5WoK6uTk6dOhW0MmVlZfb0XY1TW1sbNF5lZaWoQSdVXHXU1OksJXLnzp0RBwOc6err682RXJ1+rGtrVa7198OKp0q6jpSGc92RE2nQIlx+0YR53R5yFi1eYg7LNF01WBHOAlc0FUqVODpsr665uXMrg1QpF+WAQDgCBQWdL53dfW6LSwaaSqxaTVWl9aJhGK07zi053cmbNBBINIF42lkvw7J+Wfkws4g1p6oiWicOVRe35ISS75W/W/XKVDle3RfyjZ9APP1G/LkjIZkE1Gqv836ng9XhZPLRvJx8kp235ocC6wV18oRACAJedwghioU3BDKKAO0so24nlYFAUgjQbyQFM5mkCQGv20PSrBCnyf2gmBCAAAQgAAEIQAACEIAABCCQogRQYFP0xlAsCEAAAhCAAAQgAAEIQAACEPAlgALry4MrCEAAAhCAAAQgAAEIQAACEEhRAiiwKXpjKBYEIAABCEAAAhCAAAQgAAEI+BJAgfXlwRUEIAABCEAAAhCAAAQgAAEIpCgBFNgUvTEUCwIQgAAEIAABCEAAAhCAAAR8CaDA+vLgCgIQgAAEIAABCEAAAhCAAARSlAAKbIreGIoFAQhAAAIQgAAEIAABCEAAAr4EUGB9eXAFAQhAAAIQgAAEIAABCEAAAilKAAU2RW8MxYIABCAAAQhAAAIQgAAEIAABXwIosL48uIIABCAAAQhAAAIQgAAEIACBFCWAApuiN4ZiQQACEIAABCAAAQhAAAIQgIAvARRYXx5cQQACEIAABCAAAQhAAAIQgECKEkCBTdEbQ7EgAAEIQAACEIAABCAAAQhAwJcACqwvD64gAAEIQAACEIAABCAAAQhAIEUJ5PqXq7293d+LawhAAAIQgAAEIAABCEAAAhCAgOcEAhRYz0vkcgEKCgpclog4CCSeAM9t4hmTAwRoZzwDEIBArAToN2IlRnwIuE8gQIFtbm52PxcPJdLReAifrCEAAQhAAAIQgAAEIAABCLhIIECBLS4udlG8d6KsqdCZppB7R5Sck0HA+uDCc5sM2uSRrQRoZ9l656k3BLpPgH6j++xImXkErPbgVc0w4uQVefKFAAQgAAEIQAACEIAABCAAgZgIoMDGhIvIEIAABCAAAQhAAAIQgAAEIOAVARRYr8iTLwQgAAEIQAACEIAABCAAAQjERAAFNiZcRIYABCAAAQhAAAIQgAAEIAABrwigwHpFnnwhAAEIQAACEIAABCAAAQhAICYCKLAx4SIyBCAAAQhAAAIQgAAEIAABCHhFAAXWK/LkCwEIQAACEIAABCAAAQhAAAIxEUCBjQkXkSEAAQhAAAIQgAAEIAABCEDAKwIosF6RJ18IQAACEIAABCAAAQhAAAIQiIkACmxMuIgMAQhAAAIQgAAEIAABCEAAAl4RQIH1ijz5QgACEIAABCAAAQhAAAIQgEBMBFBgY8JFZAhAAAIQgAAEIAABCEAAAhDwigAKrFfkyRcCEIAABCAAAQhAAAIQgAAEYiKAAhsTLiJDAAIQgAAEIAABCEAAAhCAgFcEUGC9Ik++EIAABCAAAQhAAAIQgAAEIBATARTYmHARGQIQgAAEIAABCEAAAhCAAAS8IpCbqIyLSgbKpKmzJCcnOh354sVW2brhk0QVB7kQgAAEIAABCEAAAhCAAAQgkOYEEqbAVoybLDfedFvUeJobG1Bgo6ZFRAhAAAIQgAAEIAABCEAAAtlHIGEKbPahpMbZQKBHz54yfNQYyTH+ReMuXrwg1VWV0UQlDgQgAIGEEsjJyZFBgwaFzaOlpUXOnz8fNo5bcsJmQiAEIACBNCDgVn/olpw0QOZKEROmwDY3NUhV5dGQhexpKAJDho20w9vbL9nnnEAgVQkMKh0iX//BX0ddvKrKI/If//aPUccnIgQgAIFEESgtLZWbbroprPhdu3bJ3r17w8ZxS07YTAiEAAQgkAYE3OoP3ZKTBshcKWLCFNjD+3aK/oI5XR9771e+ZQddaD0vaz96x77mBAIQgAAEIAABCEAAAhCAAAQg4E8gYQqsf0bWdd/8Aln28NekeEDnNKY2Y4rl6hWvy5H9u6woHCGQsgRaW5pl46cfhixfbq88mTWna4SjNcJUvJCCCIAABCDgMgGdGnzw4MEAqYMHD5bi4uIA/1AebskJJR9/CEAAAulCwK3+0C056cIt3nImXYFd/sjTMqi03Cz3pbY2+fTDd+TArq3x1oP0EEgKgSbD2NiKN14Kmpeuj33s6T+xw+rOnpY3X3rWvuYEAhDIfAK9evWSS5dSc0lMU1OTbNu2LeAmzJgxIyYF1i05VkFSmZlVRo4QgIB3BFK5j3CrP3RLjnWXUpmZVcZ4jklVYO9/8rv2uldd87p+9fuye+uGeMpPWgikBAHdLur+x78p4yZNNcvTWF8nz//7j0XXgifT9csvlNzcXGlqrJcrV650O+tUk9PtipAQAkkiMGzYMJk8ebLU19fL5s2bo8pVjXb07dtX2tvbpc34oJutbvr06aYCrWtvq6qqshUD9YYABPwI0K/6AYnhMtP71aQpsMse/rqMqBhnotcX688//Ui2ff5pDLeCqBBIXQJLH3hcrpl+vVnAlqZGQ3n9iTScq0tKgcdMmCILlyyTwWVDpZ8xRV+dfiCqPV0jm9evli0b1kSlzKaanKTAIxMIxEnAesEqKSkxJTU0BH600jhTp3Z+3Dp58qQcOXLEvB46dKj06NG5V3pra6ucOnVKduzYEXIEd8yYMTJhwgQzn+PHj4c0tqSK9KhRo8x4Bw4cMPOLs5oJTa6KvPKbN2+enDt3zqwXimxCkSMcAilNgH41/tuT6f1q0hTYYSMr7LuhUGfPv0UmTZ0p+43pw5vWfmSHcQKBdCOweOkDMmvuIrPYapDs+V/+RGrPVCe8Gvri+8AT35Yp02cH5JWb20vKhg6XZQ8+KdfPu1me+8WP5byxfjeYSzU5wcqIHwRSjYD/C5ZVvmDTh/v06SOFhYVmlP79+5uWgPPz860k5lFHYlVBLS8vl1WrVgXdyqZ37962HD0P5aKNFyp9sv0vX75sZ4kia6PgBAJZR4B+1b1bnun9auenX/d4RS0pL6+3DBhUJnMW3SH3PfGdqNMREQKpRGDuottlweK7zCJpZ/HCM/8qp0+dSEoRb7ptuY/yqsrzkQN7ZJ/xUai+7qxdhtLy4XLvo0/b1/4nqSbHv3xcQyCVCOgL1pIlS8zRQmvUVcunI4fr1q2T7du3hy2uKqiqvF68eFFOnDghOpKqe69aThVZXZOaTW7r1q2yZcsWHw6WIquslTkOAhDIXAL0q+7f20zvV5M2Altzqkp69+4jOcaoUd++/SS/sEh0L1gdjR05erwsXvaQrHrnFffvIBIhkEAC1zksDutI5iNf+75UfXlU1n38vpw4fiRhORcbW1EtuHWpLX/39k3yzsvPy4ULraaftqu5N98hS5Y9aF6PnzJNdIqwKrhOl2pynGXjHAKpRCDUyEBtba055VWn/0brqqurZePGjfa6V+07VGkdO3asKULz0hFbNeqRDU4//h0+fFiOHj1qTn3WKdDWCLWlyDK1OBueBOqYbQToVxN3xzO9X02aAvvG757xuUvjp0yX+YuXSv/iAab/xGtmyo7N6+RszUmfeFxAIJ0IFBYVy6SimTLxmhmydtW78vF7ryek+MMrxtpr584Zo61vvPhrc92rlZmuM1cletSYCTJ+cufau+GjxgQosKkmxyo/RwikCoFQL1hnz56VPXv2SE1NTUxF7ejoMI08OY026YuGjtzqmlgdgVWnU42zRYG1ACoHVWKPHTsmFRUVMmnSJCko6FzXjyJrUeIIgfQnQL+avHuYqf1q0hRY/1t1cM9207DMHfd9xRiJzZVeeXkyauxEFFh/UFynNIFd2z6XAp1N0KOnlAwaLEOHjzKe5d7mzIKFty4zphNXye5tm1yvQ7mRj+UO7d3po7xa/nrct3OLbfm7d+/OF2NneKrJcZaNcwh4TUBHRcePH+9TjNOnT5uK65kzZ3z8o71QK8VqsMnfqWJbV1dnT5e1FDf/eNlwrR/gLEV25MiRpnVnaw2xpcjqfrbBtgTKBj7UEQLpTIB+1Zu7l2n9qmcKrN6+Q3t3mKOwRcZ0SHUlA0vNI/9BIF0IfLLiTZ+iFvYvNgwrfcv8GKMBd9z7qGGobFtIBdMncQwXfft1GYA5Vxv6RXrr52tFf6FcqskJVU78IeAFAd1Hz3I6RXjfvn2iI6/xOOd6V385TsVWpxVnu9MXLl0jXFlZKSNGjJCJEyfa+9U67022c6L+EEgnAs62S7+a/DuXKf2q538hW893Ga/o069f8u8kOULARQK6/+qrv/uVYaDlgilVR2cHDxnqYg6Boi5f7gj07IZPqsnpRhVIAoGEERgwYICUlZWJ8+WrO5npy0MoFy4sVJps8bdsZmRLfaknBLKBAP2qt3c5nfvVhIzA5hnGmuYb0ydzclQ/vhLWOJPzD3aO5Hh7J8kdAi4QaGqolyrDgJMaTVKn+7OeOnHcBcmIgAAEkklA16Dq3yg1iqZb00yZMsWcUnzo0CHR/VWd61iTWa5syUtHoa21sJZRJ6273pNsWx+cLfecemY+AfpVb+9xpvSrCVFg+xUUytTr5th36MujB0XXvAZzzimMly61BYuCHwTSjoBzWm9/w7ATDgIQSD8COmVYp7ip4qpGR1SR1RFYtZI7btw4UUVW12Lqljg49wjoqMDo0aPNKcP9HDOzVHGtqqoy1yA3NDS4lyGSIACBpBGgX00aap+MMq1fTYgCW2+syWtruyi616u60eOnBFVgRxpGmwr6F9mAW5r4g2TD4CTlCOjL6+Rps0zrv/oiFc44k4bbzkiXSKflcsOlmhw36oQMCMRLQBWl9evXS1FRUVBFVo086RYw+/fvT6oiG26NbLiweHkkMr2+YI0ZM8ZUXC1rzJofimsiqSMbAsknQL+aPOaZ2q8mRIHV21J7ulosC6fjJk2VM9VVsnXjGvuOlQ+vkJtuWy65uZ1GMtrbL8neHV/Y4ZxAINUI9DAsDT/45HfMURgtW+WRg6JrXoO54gGdhsk07ELr+WBR4vI739Jspy8eMMg+9z+ZdO1MuXHhrab34f27ja193vOJkmpyfArHBQRSiECoF67c3FxT4dIRWUuRvXChcw2828V3ynUqeP75OEct02F0WBnqHrhqpEmnalsOxdUiwRECmUmAfjVx9zXT+9WEKbA7t2yQgaVDzFHYXGPK1YIld8s1M2+Qi8Yfdv06rBaH8xx/qI4YL9fsAZu4BxnJ8RPo6GiX5sYG0b1e1Y2bdG1QC7/98gtk+KixdoYN52rtc7dOdHsey40eP9lUqn1Gfa8G6oixbk+l7lRV5VXfrkOqyekqGWcQSE0CoV649Cv3hAkTjL95ebJpk/tbZymNxsZGG4oaP9E8dfsdp9OXFt1qxnJa3khO9wm0nO4/213XXTkzZ86UiooKO1sUVxsFJxDICgL0q6FvM/1qcDYJs0K8b8dmWbPiDdsaq05PHDCozByVLRs6wlZe9Q+V7lX5/msvBC8hvhBIIQL7dm21S3PrsgdkiPEsO11vw4DZ3Q8/JX36dlrUvnChVY4e3OeM4sr5qarj5rQ6FVY6ZJgsufsh88OQU/jkadfJtcZHI8sdPRRYjlSTY5WVIwRSnYD1wrVy5Uo5ceKE3R4TWW5VYC2FtU+fPjJ9+nR7Rojmq39np02bJhqmTuM6lV7TM8h/zji61nfgwK4ZJEGih/SKV46+DyhLZarTtqNRvkMWhgAIQCDtCNCvBt4y+tVAJuqTsBFYFb5n+yZpN0atZt5wk/QvLhGnwab2S5ekseGcVB49YCq6Gh8HgVQnsP6TD0Sn5eoobL/8Qvn2X/yt7N+9TZqN9ds9jSnGY41R2f5FXaMfq9551fU9YJXRmeqTsmXDGpk1d5GJbO6i280RYVWWdVRmwKBSY+35ZBtnzckTcvTAHvvaOkk1OVa5OEIgXQhYL1zWGlnn13K363DJ+Lu5d+9eufbaa03ROu1WR2JrampM5XXIkCHmWl0r3927d4umieQ0fXt7u7GkJ9fsPxYvXiy6X62/leXq6mrZtWtXSHHxyFHFdc+ePSitIekSAIHsIUC/2nWv6Ve7WDjPEqrAakYHjBEr/alTo03lw0YZL/uNsnvrBtOP/yCQTgTq687Ks//nn+Sr3/uRFJcMNF8aVaH1d1euXJa3X/mtse77U/8g165Xvv2yDB1RYa811+169Ofvzrc0ySvP/8J8QfUP0+tUkxOsjPhBINUJWC9cbhlDC1VfteBZWlpq/jSOThd2Thm20qmyqVv9RONaW1tl27ZtMmvWLHtEV7etcW5do3JUqQ3nuivniy++kEQq/uHKTBgEIJC6BOhXRehXgz+fPStGj/k7DWozpjqqi3eTdlNIiP90LWDV8cPG6NGJEDHc87b+GPp/QXYvByRlKwE1yrRv1xbp3aev0V7yzJkF1kurKotHDu6Vj959VXZt/TxmRLp+Tl00z61OD1QFufV8iwwZptPyO6cNWpmqYbTP166Sl3/z85DGpjRuqsmxys8RAokiEEs7c6MMOkpaXl5uiqqrqzO35gkmt6yszJ6+q9v31NYGXz9fWVkpatBJFVcdNXU662Vn586dMU1rrq+vN0dydfqxzuJQuVa/ZsnXl0kdKQ3nuiMn2Pr9cHkQBgEvCCS73/CijumUJ/2q7w4U/v1zovtVr9tDzqLFS8z9Pprq68znNpxlw3R6sHU6lLrm5i5rrelUfsqaPgTUaNOgsnJpaWqS2jPVcRW8oKDATN+d51bLMWBwmalU152tkcb6czG9wFoFTzU5Vrk4QsAtAvG0M7fK4JYctdrrrE86WB12q+7IgUAyCTjbWTLzJa/kE6Bfjczc6/bg++k2cnmJAQEI+BHQrWh0Sx2vnZbDuS1Od8uTanK6Ww/SQSAbCKjCitKaDXeaOkIAAskiQL+aLNLdzydhVoi7XyRSQgACEIAABCAAAQhAAAIQgAAEAgmgwAYywQcCEIAABCAAAQhAAAIQgAAEUpAACmwK3hSKBAEIQAACEIAABCAAAQhAAAKBBFBgA5ngAwEIQAACEIAABCAAAQhAAAIpSAAFNgVvCkWCAAQgAAEIQAACEIAABCAAgUACKLCBTPCBAAQgAAEIQAACEIAABCAAgRQkgAKbgjeFIkEAAhCAAAQgAAEIQAACEIBAIAEU2EAm+EAAAhCAAAQgAAEIQAACEIBAChJAgU3Bm0KRIAABCEAAAhCAAAQgAAEIQCCQAApsIBN8IAABCEAAAhCAAAQgAAEIQCAFCaDApuBNoUgQgAAEIAABCEAAAhCAAAQgEEgABTaQCT4QgAAEIAABCEAAAhCAAAQgkIIEUGBT8KZQJAhAAAIQgAAEIAABCEAAAhAIJIACG8gEHwhAAAIQgAAEIAABCEAAAhBIQQIosCl4UygSBCAAAQhAAAIQgAAEIAABCAQSyPX3am9v9/fiGgIQgAAEIAABCEAAAhCAAAQg4DmBAAXW8xK5XICCggKXJSIOAoknwHObeMbkAAHaGc8ABCAQKwH6jViJER8C7hMIUGCbm5vdz8VDiXQ0HsInawhAAAIQgAAEIAABCEAAAi4SCFBgXZSdEqIyTSFPCagUAgIQgAAEIAABCEAAAhCAgAcEMOLkAXSyhAAEIAABCEAAAhCAAAQgAIHYCaDAxs6MFBCAAAQgAAEIQAACEIAABCDgAQEUWA+gkyUEIAABCEAAAhCAAAQgAAEIxE4ABTZ2ZqSAAAQgAAEIQAACEIAABCAAAQ8IoMB6AJ0sIQABCEAAAhCAAAQgAAEIQCB2AiiwsTMjBQQgAAEIQAACEIAABCAAAQh4QAAF1gPoZAkBCEAAAhCAAAQgAAEIQAACsRNAgY2dGSkgAAEIQAACEIAABCAAAQhAwAMCKLAeQCdLCEAAAhCAAAQgAAEIQAACEIidAAps7MxIAQEIQAACEIAABCAAAQhAAAIeEECB9QA6WUIAAhCAAAQgAAEIQAACEIBA7ARQYGNnRgoIQAACEIAABCAAAQhAAAIQ8IAACqwH0MkSAhCAAAQgAAEIQAACEIAABGIngAIbOzNSQAACEIAABCAAAQhAAAIQgIAHBFBgPYBOlhCAAAQgAAEIQAACEIAABCAQOwEU2NiZkQICEIAABCAAAQhAAAIQgAAEPCCAAusBdLKEAAQgAAEIQAACEIAABCAAgdgJoMDGzowUEIAABCAAAQhAAAIQgAAEIOABARRYD6CTJQQgAAEIQAACEIAABCAAAQjETuD/Bz84Nj1LaQtkAAAAAElFTkSuQmCC;" vertex="1" parent="1">
          <mxGeometry x="200" y="1040" width="564" height="157.73" as="geometry" />
        </mxCell>
        <mxCell id="nHKpHeA0GXmnpcT4zRDb-412" value="......" style="rounded=0;whiteSpace=wrap;html=1;fillColor=#f5f5f5;fontColor=#333333;strokeColor=#666666;" vertex="1" parent="1">
          <mxGeometry x="120" y="1520" width="92" height="45" as="geometry" />
        </mxCell>
        <mxCell id="nHKpHeA0GXmnpcT4zRDb-413" value="部分真实数据" style="rounded=0;whiteSpace=wrap;html=1;fillColor=#60a917;fontColor=#ffffff;strokeColor=#2D7600;" vertex="1" parent="1">
          <mxGeometry x="212" y="1520" width="84" height="45" as="geometry" />
        </mxCell>
        <mxCell id="nHKpHeA0GXmnpcT4zRDb-414" value="存放记录剩余数据的溢出页" style="rounded=0;whiteSpace=wrap;html=1;fillColor=#ffe6cc;strokeColor=#d79b00;" vertex="1" parent="1">
          <mxGeometry x="376" y="1610" width="86" height="45" as="geometry" />
        </mxCell>
        <mxCell id="nHKpHeA0GXmnpcT4zRDb-415" value="溢出页地址" style="rounded=0;whiteSpace=wrap;html=1;fillColor=#ffe6cc;strokeColor=#d79b00;" vertex="1" parent="1">
          <mxGeometry x="296" y="1520" width="92" height="45" as="geometry" />
        </mxCell>
        <mxCell id="nHKpHeA0GXmnpcT4zRDb-416" value="......" style="rounded=0;whiteSpace=wrap;html=1;fillColor=#f5f5f5;fontColor=#333333;strokeColor=#666666;" vertex="1" parent="1">
          <mxGeometry x="388" y="1520" width="92" height="45" as="geometry" />
        </mxCell>
        <mxCell id="nHKpHeA0GXmnpcT4zRDb-417" value="" style="endArrow=classic;html=1;rounded=0;exitX=0.5;exitY=1;exitDx=0;exitDy=0;entryX=0;entryY=0.5;entryDx=0;entryDy=0;" edge="1" parent="1" source="nHKpHeA0GXmnpcT4zRDb-415" target="nHKpHeA0GXmnpcT4zRDb-414">
          <mxGeometry width="50" height="50" relative="1" as="geometry">
            <mxPoint x="612" y="1520" as="sourcePoint" />
            <mxPoint x="662" y="1470" as="targetPoint" />
            <Array as="points">
              <mxPoint x="342" y="1633" />
            </Array>
          </mxGeometry>
        </mxCell>
        <mxCell id="nHKpHeA0GXmnpcT4zRDb-418" value="......" style="rounded=0;whiteSpace=wrap;html=1;fillColor=#f5f5f5;fontColor=#333333;strokeColor=#666666;" vertex="1" parent="1">
          <mxGeometry x="530" y="1530" width="92" height="45" as="geometry" />
        </mxCell>
        <mxCell id="nHKpHeA0GXmnpcT4zRDb-420" value="存放记录数据的溢出页" style="rounded=0;whiteSpace=wrap;html=1;fillColor=#ffe6cc;strokeColor=#d79b00;" vertex="1" parent="1">
          <mxGeometry x="702" y="1620" width="86" height="45" as="geometry" />
        </mxCell>
        <mxCell id="nHKpHeA0GXmnpcT4zRDb-421" value="溢出页地址" style="rounded=0;whiteSpace=wrap;html=1;fillColor=#ffe6cc;strokeColor=#d79b00;" vertex="1" parent="1">
          <mxGeometry x="622" y="1530" width="92" height="45" as="geometry" />
        </mxCell>
        <mxCell id="nHKpHeA0GXmnpcT4zRDb-422" value="......" style="rounded=0;whiteSpace=wrap;html=1;fillColor=#f5f5f5;fontColor=#333333;strokeColor=#666666;" vertex="1" parent="1">
          <mxGeometry x="714" y="1530" width="92" height="45" as="geometry" />
        </mxCell>
        <mxCell id="nHKpHeA0GXmnpcT4zRDb-423" value="" style="endArrow=classic;html=1;rounded=0;exitX=0.5;exitY=1;exitDx=0;exitDy=0;entryX=0;entryY=0.5;entryDx=0;entryDy=0;" edge="1" parent="1" source="nHKpHeA0GXmnpcT4zRDb-421" target="nHKpHeA0GXmnpcT4zRDb-420">
          <mxGeometry width="50" height="50" relative="1" as="geometry">
            <mxPoint x="938" y="1530" as="sourcePoint" />
            <mxPoint x="988" y="1480" as="targetPoint" />
            <Array as="points">
              <mxPoint x="668" y="1643" />
            </Array>
          </mxGeometry>
        </mxCell>
        <mxCell id="nHKpHeA0GXmnpcT4zRDb-424" value="Compact&lt;br&gt;行格式行溢出" style="text;html=1;strokeColor=none;fillColor=none;align=center;verticalAlign=middle;whiteSpace=wrap;rounded=0;" vertex="1" parent="1">
          <mxGeometry x="240" y="1480" width="130" height="30" as="geometry" />
        </mxCell>
        <mxCell id="nHKpHeA0GXmnpcT4zRDb-425" value="Compressed和Dynamic行格式 行溢出" style="text;html=1;strokeColor=none;fillColor=none;align=center;verticalAlign=middle;whiteSpace=wrap;rounded=0;" vertex="1" parent="1">
          <mxGeometry x="614" y="1490" width="130" height="30" as="geometry" />
        </mxCell>
      </root>
    </mxGraphModel>
  </diagram>
</mxfile>
